<svg width="134" height="128" viewBox="0 0 134 128" fill="none" xmlns="http://www.w3.org/2000/svg">
<path d="M51.1374 123C56.7388 123 61.2796 118.459 61.2796 112.858C61.2796 107.256 56.7388 102.716 51.1374 102.716C45.536 102.716 40.9952 107.256 40.9952 112.858C40.9952 118.459 45.536 123 51.1374 123Z" stroke="#C7C7C7" stroke-width="10" stroke-linecap="round" stroke-linejoin="round"/>
<path d="M107.702 123C113.303 123 117.844 118.459 117.844 112.858C117.844 107.256 113.303 102.716 107.702 102.716C102.1 102.716 97.5593 107.256 97.5593 112.858C97.5593 118.459 102.1 123 107.702 123Z" stroke="#C7C7C7" stroke-width="10" stroke-linecap="round" stroke-linejoin="round"/>
<mask id="path-3-outside-1_411_21" maskUnits="userSpaceOnUse" x="0" y="0.0140381" width="134" height="98" fill="black">
<rect fill="white" y="0.0140381" width="134" height="98"/>
<path d="M10 10.014C18.0326 10.014 30.5687 10.014 30.5687 10.014L44.3498 78.8679C44.82 81.2353 46.1079 83.362 47.9881 84.8755C49.8683 86.389 52.2209 87.1931 54.6342 87.1468H104.616C107.029 87.1931 109.382 86.389 111.262 84.8755C113.142 83.362 114.43 81.2353 114.901 78.8679L123.128 35.725C123.128 35.725 69.8494 35.725 35.7109 35.725"/>
</mask>
<path d="M10 0.0140381C4.47715 0.0140381 0 4.49119 0 10.014C0 15.5369 4.47715 20.014 10 20.014V0.0140381ZM30.5687 10.014L40.3743 8.05147C39.4388 3.37789 35.335 0.0140381 30.5687 0.0140381V10.014ZM44.3498 78.8679L54.1582 76.9197C54.1572 76.9149 54.1563 76.9101 54.1553 76.9053L44.3498 78.8679ZM54.6342 87.1468V77.1468C54.5703 77.1468 54.5064 77.1474 54.4426 77.1487L54.6342 87.1468ZM104.616 87.1468L104.808 77.1487C104.744 77.1474 104.68 77.1468 104.616 77.1468V87.1468ZM114.901 78.8679L124.709 80.8161C124.714 80.7911 124.719 80.7662 124.724 80.7412L114.901 78.8679ZM123.128 35.725L132.951 37.5982C133.509 34.6707 132.733 31.6468 130.833 29.3505C128.933 27.0542 126.108 25.725 123.128 25.725V35.725ZM35.7109 25.725C30.1881 25.725 25.7109 30.2021 25.7109 35.725C25.7109 41.2478 30.1881 45.725 35.7109 45.725V25.725ZM10 20.014C10.0157 20.014 10.0314 20.014 10.0471 20.014C10.0628 20.014 10.0786 20.014 10.0943 20.014C10.1101 20.014 10.1259 20.014 10.1417 20.014C10.1574 20.014 10.1733 20.014 10.1891 20.014C10.2049 20.014 10.2207 20.014 10.2366 20.014C10.2525 20.014 10.2683 20.014 10.2842 20.014C10.3001 20.014 10.316 20.014 10.3319 20.014C10.3479 20.014 10.3638 20.014 10.3798 20.014C10.3957 20.014 10.4117 20.014 10.4277 20.014C10.4437 20.014 10.4597 20.014 10.4757 20.014C10.4917 20.014 10.5077 20.014 10.5238 20.014C10.5398 20.014 10.5559 20.014 10.572 20.014C10.5881 20.014 10.6042 20.014 10.6203 20.014C10.6364 20.014 10.6525 20.014 10.6687 20.014C10.6848 20.014 10.701 20.014 10.7172 20.014C10.7333 20.014 10.7495 20.014 10.7657 20.014C10.7819 20.014 10.7982 20.014 10.8144 20.014C10.8306 20.014 10.8469 20.014 10.8631 20.014C10.8794 20.014 10.8957 20.014 10.912 20.014C10.9283 20.014 10.9446 20.014 10.9609 20.014C10.9772 20.014 10.9936 20.014 11.0099 20.014C11.0263 20.014 11.0427 20.014 11.059 20.014C11.0754 20.014 11.0918 20.014 11.1082 20.014C11.1246 20.014 11.1411 20.014 11.1575 20.014C11.174 20.014 11.1904 20.014 11.2069 20.014C11.2233 20.014 11.2398 20.014 11.2563 20.014C11.2728 20.014 11.2893 20.014 11.3059 20.014C11.3224 20.014 11.3389 20.014 11.3555 20.014C11.372 20.014 11.3886 20.014 11.4052 20.014C11.4217 20.014 11.4383 20.014 11.4549 20.014C11.4715 20.014 11.4882 20.014 11.5048 20.014C11.5214 20.014 11.5381 20.014 11.5547 20.014C11.5714 20.014 11.5881 20.014 11.6047 20.014C11.6214 20.014 11.6381 20.014 11.6548 20.014C11.6715 20.014 11.6883 20.014 11.705 20.014C11.7217 20.014 11.7385 20.014 11.7552 20.014C11.772 20.014 11.7888 20.014 11.8056 20.014C11.8224 20.014 11.8392 20.014 11.856 20.014C11.8728 20.014 11.8896 20.014 11.9064 20.014C11.9233 20.014 11.9401 20.014 11.957 20.014C11.9738 20.014 11.9907 20.014 12.0076 20.014C12.0245 20.014 12.0414 20.014 12.0583 20.014C12.0752 20.014 12.0921 20.014 12.109 20.014C12.126 20.014 12.1429 20.014 12.1599 20.014C12.1768 20.014 12.1938 20.014 12.2108 20.014C12.2277 20.014 12.2447 20.014 12.2617 20.014C12.2787 20.014 12.2957 20.014 12.3128 20.014C12.3298 20.014 12.3468 20.014 12.3639 20.014C12.3809 20.014 12.398 20.014 12.415 20.014C12.4321 20.014 12.4492 20.014 12.4663 20.014C12.4834 20.014 12.5005 20.014 12.5176 20.014C12.5347 20.014 12.5518 20.014 12.5689 20.014C12.5861 20.014 12.6032 20.014 12.6204 20.014C12.6375 20.014 12.6547 20.014 12.6719 20.014C12.689 20.014 12.7062 20.014 12.7234 20.014C12.7406 20.014 12.7578 20.014 12.775 20.014C12.7922 20.014 12.8095 20.014 12.8267 20.014C12.8439 20.014 12.8612 20.014 12.8784 20.014C12.8957 20.014 12.913 20.014 12.9302 20.014C12.9475 20.014 12.9648 20.014 12.9821 20.014C12.9994 20.014 13.0167 20.014 13.034 20.014C13.0513 20.014 13.0686 20.014 13.0859 20.014C13.1033 20.014 13.1206 20.014 13.138 20.014C13.1553 20.014 13.1727 20.014 13.19 20.014C13.2074 20.014 13.2248 20.014 13.2422 20.014C13.2596 20.014 13.277 20.014 13.2944 20.014C13.3118 20.014 13.3292 20.014 13.3466 20.014C13.364 20.014 13.3814 20.014 13.3989 20.014C13.4163 20.014 13.4338 20.014 13.4512 20.014C13.4687 20.014 13.4861 20.014 13.5036 20.014C13.5211 20.014 13.5386 20.014 13.5561 20.014C13.5735 20.014 13.591 20.014 13.6085 20.014C13.626 20.014 13.6436 20.014 13.6611 20.014C13.6786 20.014 13.6961 20.014 13.7137 20.014C13.7312 20.014 13.7487 20.014 13.7663 20.014C13.7838 20.014 13.8014 20.014 13.819 20.014C13.8365 20.014 13.8541 20.014 13.8717 20.014C13.8893 20.014 13.9069 20.014 13.9245 20.014C13.9421 20.014 13.9597 20.014 13.9773 20.014C13.9949 20.014 14.0125 20.014 14.0301 20.014C14.0478 20.014 14.0654 20.014 14.083 20.014C14.1007 20.014 14.1183 20.014 14.136 20.014C14.1536 20.014 14.1713 20.014 14.1889 20.014C14.2066 20.014 14.2243 20.014 14.242 20.014C14.2596 20.014 14.2773 20.014 14.295 20.014C14.3127 20.014 14.3304 20.014 14.3481 20.014C14.3658 20.014 14.3835 20.014 14.4012 20.014C14.419 20.014 14.4367 20.014 14.4544 20.014C14.4721 20.014 14.4899 20.014 14.5076 20.014C14.5254 20.014 14.5431 20.014 14.5609 20.014C14.5786 20.014 14.5964 20.014 14.6141 20.014C14.6319 20.014 14.6497 20.014 14.6674 20.014C14.6852 20.014 14.703 20.014 14.7208 20.014C14.7386 20.014 14.7564 20.014 14.7742 20.014C14.7919 20.014 14.8098 20.014 14.8276 20.014C14.8454 20.014 14.8632 20.014 14.881 20.014C14.8988 20.014 14.9166 20.014 14.9345 20.014C14.9523 20.014 14.9701 20.014 14.988 20.014C15.0058 20.014 15.0236 20.014 15.0415 20.014C15.0593 20.014 15.0772 20.014 15.095 20.014C15.1129 20.014 15.1307 20.014 15.1486 20.014C15.1665 20.014 15.1843 20.014 15.2022 20.014C15.2201 20.014 15.238 20.014 15.2558 20.014C15.2737 20.014 15.2916 20.014 15.3095 20.014C15.3274 20.014 15.3453 20.014 15.3632 20.014C15.3811 20.014 15.399 20.014 15.4169 20.014C15.4348 20.014 15.4527 20.014 15.4706 20.014C15.4885 20.014 15.5064 20.014 15.5243 20.014C15.5423 20.014 15.5602 20.014 15.5781 20.014C15.596 20.014 15.614 20.014 15.6319 20.014C15.6498 20.014 15.6678 20.014 15.6857 20.014C15.7036 20.014 15.7216 20.014 15.7395 20.014C15.7575 20.014 15.7754 20.014 15.7934 20.014C15.8113 20.014 15.8293 20.014 15.8472 20.014C15.8652 20.014 15.8831 20.014 15.9011 20.014C15.9191 20.014 15.937 20.014 15.955 20.014C15.973 20.014 15.9909 20.014 16.0089 20.014C16.0269 20.014 16.0448 20.014 16.0628 20.014C16.0808 20.014 16.0988 20.014 16.1168 20.014C16.1347 20.014 16.1527 20.014 16.1707 20.014C16.1887 20.014 16.2067 20.014 16.2247 20.014C16.2426 20.014 16.2606 20.014 16.2786 20.014C16.2966 20.014 16.3146 20.014 16.3326 20.014C16.3506 20.014 16.3686 20.014 16.3866 20.014C16.4046 20.014 16.4226 20.014 16.4406 20.014C16.4586 20.014 16.4766 20.014 16.4946 20.014C16.5126 20.014 16.5306 20.014 16.5486 20.014C16.5666 20.014 16.5846 20.014 16.6026 20.014C16.6206 20.014 16.6386 20.014 16.6566 20.014C16.6746 20.014 16.6927 20.014 16.7107 20.014C16.7287 20.014 16.7467 20.014 16.7647 20.014C16.7827 20.014 16.8007 20.014 16.8187 20.014C16.8367 20.014 16.8548 20.014 16.8728 20.014C16.8908 20.014 16.9088 20.014 16.9268 20.014C16.9448 20.014 16.9628 20.014 16.9808 20.014C16.9989 20.014 17.0169 20.014 17.0349 20.014C17.0529 20.014 17.0709 20.014 17.0889 20.014C17.1069 20.014 17.125 20.014 17.143 20.014C17.161 20.014 17.179 20.014 17.197 20.014C17.215 20.014 17.233 20.014 17.251 20.014C17.269 20.014 17.2871 20.014 17.3051 20.014C17.3231 20.014 17.3411 20.014 17.3591 20.014C17.3771 20.014 17.3951 20.014 17.4131 20.014C17.4311 20.014 17.4491 20.014 17.4671 20.014C17.4851 20.014 17.5031 20.014 17.5211 20.014C17.5391 20.014 17.5571 20.014 17.5751 20.014C17.5931 20.014 17.6111 20.014 17.6291 20.014C17.6471 20.014 17.6651 20.014 17.6831 20.014C17.7011 20.014 17.7191 20.014 17.7371 20.014C17.7551 20.014 17.7731 20.014 17.791 20.014C17.809 20.014 17.827 20.014 17.845 20.014C17.863 20.014 17.881 20.014 17.8989 20.014C17.9169 20.014 17.9349 20.014 17.9529 20.014C17.9708 20.014 17.9888 20.014 18.0068 20.014C18.0248 20.014 18.0427 20.014 18.0607 20.014C18.0786 20.014 18.0966 20.014 18.1146 20.014C18.1325 20.014 18.1505 20.014 18.1684 20.014C18.1864 20.014 18.2043 20.014 18.2223 20.014C18.2402 20.014 18.2582 20.014 18.2761 20.014C18.2941 20.014 18.312 20.014 18.3299 20.014C18.3479 20.014 18.3658 20.014 18.3837 20.014C18.4017 20.014 18.4196 20.014 18.4375 20.014C18.4554 20.014 18.4734 20.014 18.4913 20.014C18.5092 20.014 18.5271 20.014 18.545 20.014C18.5629 20.014 18.5808 20.014 18.5987 20.014C18.6166 20.014 18.6345 20.014 18.6524 20.014C18.6703 20.014 18.6882 20.014 18.7061 20.014C18.724 20.014 18.7419 20.014 18.7597 20.014C18.7776 20.014 18.7955 20.014 18.8134 20.014C18.8312 20.014 18.8491 20.014 18.867 20.014C18.8848 20.014 18.9027 20.014 18.9205 20.014C18.9384 20.014 18.9562 20.014 18.9741 20.014C18.9919 20.014 19.0098 20.014 19.0276 20.014C19.0454 20.014 19.0632 20.014 19.0811 20.014C19.0989 20.014 19.1167 20.014 19.1345 20.014C19.1523 20.014 19.1701 20.014 19.188 20.014C19.2058 20.014 19.2236 20.014 19.2413 20.014C19.2591 20.014 19.2769 20.014 19.2947 20.014C19.3125 20.014 19.3303 20.014 19.348 20.014C19.3658 20.014 19.3836 20.014 19.4013 20.014C19.4191 20.014 19.4368 20.014 19.4546 20.014C19.4723 20.014 19.4901 20.014 19.5078 20.014C19.5256 20.014 19.5433 20.014 19.561 20.014C19.5787 20.014 19.5965 20.014 19.6142 20.014C19.6319 20.014 19.6496 20.014 19.6673 20.014C19.685 20.014 19.7027 20.014 19.7204 20.014C19.7381 20.014 19.7557 20.014 19.7734 20.014C19.7911 20.014 19.8088 20.014 19.8264 20.014C19.8441 20.014 19.8617 20.014 19.8794 20.014C19.897 20.014 19.9147 20.014 19.9323 20.014C19.9499 20.014 19.9676 20.014 19.9852 20.014C20.0028 20.014 20.0204 20.014 20.038 20.014C20.0556 20.014 20.0732 20.014 20.0908 20.014C20.1084 20.014 20.126 20.014 20.1436 20.014C20.1611 20.014 20.1787 20.014 20.1963 20.014C20.2138 20.014 20.2314 20.014 20.2489 20.014C20.2665 20.014 20.284 20.014 20.3016 20.014C20.3191 20.014 20.3366 20.014 20.3541 20.014C20.3716 20.014 20.3891 20.014 20.4066 20.014C20.4241 20.014 20.4416 20.014 20.4591 20.014C20.4766 20.014 20.4941 20.014 20.5115 20.014C20.529 20.014 20.5465 20.014 20.5639 20.014C20.5814 20.014 20.5988 20.014 20.6162 20.014C20.6337 20.014 20.6511 20.014 20.6685 20.014C20.6859 20.014 20.7033 20.014 20.7207 20.014C20.7381 20.014 20.7555 20.014 20.7729 20.014C20.7903 20.014 20.8076 20.014 20.825 20.014C20.8423 20.014 20.8597 20.014 20.877 20.014C20.8944 20.014 20.9117 20.014 20.929 20.014C20.9464 20.014 20.9637 20.014 20.981 20.014C20.9983 20.014 21.0156 20.014 21.0329 20.014C21.0502 20.014 21.0674 20.014 21.0847 20.014C21.102 20.014 21.1192 20.014 21.1365 20.014C21.1537 20.014 21.171 20.014 21.1882 20.014C21.2054 20.014 21.2226 20.014 21.2398 20.014C21.2571 20.014 21.2742 20.014 21.2914 20.014C21.3086 20.014 21.3258 20.014 21.343 20.014C21.3601 20.014 21.3773 20.014 21.3944 20.014C21.4116 20.014 21.4287 20.014 21.4458 20.014C21.463 20.014 21.4801 20.014 21.4972 20.014C21.5143 20.014 21.5314 20.014 21.5485 20.014C21.5655 20.014 21.5826 20.014 21.5997 20.014C21.6167 20.014 21.6338 20.014 21.6508 20.014C21.6679 20.014 21.6849 20.014 21.7019 20.014C21.7189 20.014 21.7359 20.014 21.7529 20.014C21.7699 20.014 21.7869 20.014 21.8038 20.014C21.8208 20.014 21.8378 20.014 21.8547 20.014C21.8717 20.014 21.8886 20.014 21.9055 20.014C21.9224 20.014 21.9394 20.014 21.9563 20.014C21.9732 20.014 21.99 20.014 22.0069 20.014C22.0238 20.014 22.0407 20.014 22.0575 20.014C22.0744 20.014 22.0912 20.014 22.108 20.014C22.1249 20.014 22.1417 20.014 22.1585 20.014C22.1753 20.014 22.1921 20.014 22.2088 20.014C22.2256 20.014 22.2424 20.014 22.2591 20.014C22.2759 20.014 22.2926 20.014 22.3094 20.014C22.3261 20.014 22.3428 20.014 22.3595 20.014C22.3762 20.014 22.3929 20.014 22.4096 20.014C22.4262 20.014 22.4429 20.014 22.4595 20.014C22.4762 20.014 22.4928 20.014 22.5094 20.014C22.5261 20.014 22.5427 20.014 22.5593 20.014C22.5759 20.014 22.5925 20.014 22.609 20.014C22.6256 20.014 22.6421 20.014 22.6587 20.014C22.6752 20.014 22.6918 20.014 22.7083 20.014C22.7248 20.014 22.7413 20.014 22.7578 20.014C22.7743 20.014 22.7907 20.014 22.8072 20.014C22.8236 20.014 22.8401 20.014 22.8565 20.014C22.8729 20.014 22.8894 20.014 22.9058 20.014C22.9222 20.014 22.9386 20.014 22.9549 20.014C22.9713 20.014 22.9877 20.014 23.004 20.014C23.0203 20.014 23.0367 20.014 23.053 20.014C23.0693 20.014 23.0856 20.014 23.1019 20.014C23.1182 20.014 23.1344 20.014 23.1507 20.014C23.167 20.014 23.1832 20.014 23.1994 20.014C23.2156 20.014 23.2319 20.014 23.248 20.014C23.2642 20.014 23.2804 20.014 23.2966 20.014C23.3128 20.014 23.3289 20.014 23.345 20.014C23.3612 20.014 23.3773 20.014 23.3934 20.014C23.4095 20.014 23.4256 20.014 23.4417 20.014C23.4577 20.014 23.4738 20.014 23.4898 20.014C23.5059 20.014 23.5219 20.014 23.5379 20.014C23.5539 20.014 23.5699 20.014 23.5859 20.014C23.6018 20.014 23.6178 20.014 23.6337 20.014C23.6497 20.014 23.6656 20.014 23.6815 20.014C23.6974 20.014 23.7133 20.014 23.7292 20.014C23.7451 20.014 23.761 20.014 23.7768 20.014C23.7926 20.014 23.8085 20.014 23.8243 20.014C23.8401 20.014 23.8559 20.014 23.8717 20.014C23.8875 20.014 23.9032 20.014 23.919 20.014C23.9347 20.014 23.9504 20.014 23.9661 20.014C23.9819 20.014 23.9975 20.014 24.0132 20.014C24.0289 20.014 24.0446 20.014 24.0602 20.014C24.0758 20.014 24.0915 20.014 24.1071 20.014C24.1227 20.014 24.1383 20.014 24.1538 20.014C24.1694 20.014 24.185 20.014 24.2005 20.014C24.216 20.014 24.2316 20.014 24.2471 20.014C24.2626 20.014 24.278 20.014 24.2935 20.014C24.309 20.014 24.3244 20.014 24.3398 20.014C24.3553 20.014 24.3707 20.014 24.3861 20.014C24.4015 20.014 24.4168 20.014 24.4322 20.014C24.4476 20.014 24.4629 20.014 24.4782 20.014C24.4935 20.014 24.5088 20.014 24.5241 20.014C24.5394 20.014 24.5547 20.014 24.5699 20.014C24.5852 20.014 24.6004 20.014 24.6156 20.014C24.6308 20.014 24.646 20.014 24.6611 20.014C24.6763 20.014 24.6915 20.014 24.7066 20.014C24.7217 20.014 24.7368 20.014 24.7519 20.014C24.767 20.014 24.7821 20.014 24.7972 20.014C24.8122 20.014 24.8272 20.014 24.8423 20.014C24.8573 20.014 24.8723 20.014 24.8872 20.014C24.9022 20.014 24.9172 20.014 24.9321 20.014C24.9471 20.014 24.962 20.014 24.9769 20.014C24.9918 20.014 25.0066 20.014 25.0215 20.014C25.0364 20.014 25.0512 20.014 25.066 20.014C25.0808 20.014 25.0956 20.014 25.1104 20.014C25.1252 20.014 25.1399 20.014 25.1547 20.014C25.1694 20.014 25.1841 20.014 25.1988 20.014C25.2135 20.014 25.2282 20.014 25.2428 20.014C25.2575 20.014 25.2721 20.014 25.2867 20.014C25.3013 20.014 25.3159 20.014 25.3305 20.014C25.3451 20.014 25.3596 20.014 25.3742 20.014C25.3887 20.014 25.4032 20.014 25.4177 20.014C25.4322 20.014 25.4466 20.014 25.4611 20.014C25.4755 20.014 25.4899 20.014 25.5043 20.014C25.5187 20.014 25.5331 20.014 25.5475 20.014C25.5618 20.014 25.5762 20.014 25.5905 20.014C25.6048 20.014 25.6191 20.014 25.6334 20.014C25.6476 20.014 25.6619 20.014 25.6761 20.014C25.6903 20.014 25.7045 20.014 25.7187 20.014C25.7329 20.014 25.7471 20.014 25.7612 20.014C25.7754 20.014 25.7895 20.014 25.8036 20.014C25.8177 20.014 25.8317 20.014 25.8458 20.014C25.8598 20.014 25.8739 20.014 25.8879 20.014C25.9019 20.014 25.9159 20.014 25.9298 20.014C25.9438 20.014 25.9577 20.014 25.9716 20.014C25.9855 20.014 25.9994 20.014 26.0133 20.014C26.0272 20.014 26.041 20.014 26.0548 20.014C26.0687 20.014 26.0825 20.014 26.0962 20.014C26.11 20.014 26.1238 20.014 26.1375 20.014C26.1512 20.014 26.1649 20.014 26.1786 20.014C26.1923 20.014 26.206 20.014 26.2196 20.014C26.2332 20.014 26.2469 20.014 26.2604 20.014C26.274 20.014 26.2876 20.014 26.3011 20.014C26.3147 20.014 26.3282 20.014 26.3417 20.014C26.3552 20.014 26.3687 20.014 26.3821 20.014C26.3955 20.014 26.409 20.014 26.4224 20.014C26.4358 20.014 26.4491 20.014 26.4625 20.014C26.4758 20.014 26.4892 20.014 26.5025 20.014C26.5158 20.014 26.529 20.014 26.5423 20.014C26.5555 20.014 26.5688 20.014 26.582 20.014C26.5952 20.014 26.6083 20.014 26.6215 20.014C26.6347 20.014 26.6478 20.014 26.6609 20.014C26.674 20.014 26.6871 20.014 26.7001 20.014C26.7132 20.014 26.7262 20.014 26.7392 20.014C26.7522 20.014 26.7652 20.014 26.7781 20.014C26.7911 20.014 26.804 20.014 26.8169 20.014C26.8298 20.014 26.8427 20.014 26.8555 20.014C26.8684 20.014 26.8812 20.014 26.894 20.014C26.9068 20.014 26.9196 20.014 26.9323 20.014C26.9451 20.014 26.9578 20.014 26.9705 20.014C26.9832 20.014 26.9958 20.014 27.0085 20.014C27.0211 20.014 27.0337 20.014 27.0463 20.014C27.0589 20.014 27.0715 20.014 27.084 20.014C27.0966 20.014 27.1091 20.014 27.1216 20.014C27.134 20.014 27.1465 20.014 27.1589 20.014C27.1714 20.014 27.1838 20.014 27.1962 20.014C27.2085 20.014 27.2209 20.014 27.2332 20.014C27.2455 20.014 27.2578 20.014 27.2701 20.014C27.2824 20.014 27.2946 20.014 27.3068 20.014C27.319 20.014 27.3312 20.014 27.3434 20.014C27.3556 20.014 27.3677 20.014 27.3798 20.014C27.3919 20.014 27.404 20.014 27.416 20.014C27.4281 20.014 27.4401 20.014 27.4521 20.014C27.4641 20.014 27.4761 20.014 27.488 20.014C27.5 20.014 27.5119 20.014 27.5238 20.014C27.5357 20.014 27.5475 20.014 27.5594 20.014C27.5712 20.014 27.583 20.014 27.5948 20.014C27.6065 20.014 27.6183 20.014 27.63 20.014C27.6417 20.014 27.6534 20.014 27.6651 20.014C27.6767 20.014 27.6884 20.014 27.7 20.014C27.7116 20.014 27.7232 20.014 27.7347 20.014C27.7462 20.014 27.7578 20.014 27.7693 20.014C27.7807 20.014 27.7922 20.014 27.8036 20.014C27.8151 20.014 27.8265 20.014 27.8378 20.014C27.8492 20.014 27.8606 20.014 27.8719 20.014C27.8832 20.014 27.8945 20.014 27.9057 20.014C27.917 20.014 27.9282 20.014 27.9394 20.014C27.9506 20.014 27.9618 20.014 27.9729 20.014C27.9841 20.014 27.9952 20.014 28.0063 20.014C28.0173 20.014 28.0284 20.014 28.0394 20.014C28.0504 20.014 28.0614 20.014 28.0724 20.014C28.0834 20.014 28.0943 20.014 28.1052 20.014C28.1161 20.014 28.127 20.014 28.1378 20.014C28.1486 20.014 28.1595 20.014 28.1702 20.014C28.181 20.014 28.1918 20.014 28.2025 20.014C28.2132 20.014 28.2239 20.014 28.2346 20.014C28.2452 20.014 28.2558 20.014 28.2664 20.014C28.277 20.014 28.2876 20.014 28.2981 20.014C28.3087 20.014 28.3192 20.014 28.3297 20.014C28.3401 20.014 28.3506 20.014 28.361 20.014C28.3714 20.014 28.3818 20.014 28.3921 20.014C28.4025 20.014 28.4128 20.014 28.4231 20.014C28.4334 20.014 28.4436 20.014 28.4539 20.014C28.4641 20.014 28.4743 20.014 28.4845 20.014C28.4946 20.014 28.5047 20.014 28.5148 20.014C28.5249 20.014 28.535 20.014 28.545 20.014C28.5551 20.014 28.5651 20.014 28.5751 20.014C28.585 20.014 28.595 20.014 28.6049 20.014C28.6148 20.014 28.6247 20.014 28.6345 20.014C28.6443 20.014 28.6542 20.014 28.6639 20.014C28.6737 20.014 28.6835 20.014 28.6932 20.014C28.7029 20.014 28.7126 20.014 28.7222 20.014C28.7319 20.014 28.7415 20.014 28.7511 20.014C28.7607 20.014 28.7702 20.014 28.7797 20.014C28.7892 20.014 28.7987 20.014 28.8082 20.014C28.8176 20.014 28.8271 20.014 28.8364 20.014C28.8458 20.014 28.8552 20.014 28.8645 20.014C28.8738 20.014 28.8831 20.014 28.8924 20.014C28.9016 20.014 28.9108 20.014 28.92 20.014C28.9292 20.014 28.9384 20.014 28.9475 20.014C28.9566 20.014 28.9657 20.014 28.9747 20.014C28.9838 20.014 28.9928 20.014 29.0018 20.014C29.0108 20.014 29.0197 20.014 29.0286 20.014C29.0376 20.014 29.0464 20.014 29.0553 20.014C29.0641 20.014 29.073 20.014 29.0817 20.014C29.0905 20.014 29.0993 20.014 29.108 20.014C29.1167 20.014 29.1254 20.014 29.134 20.014C29.1426 20.014 29.1513 20.014 29.1598 20.014C29.1684 20.014 29.1769 20.014 29.1854 20.014C29.1939 20.014 29.2024 20.014 29.2109 20.014C29.2193 20.014 29.2277 20.014 29.2361 20.014C29.2444 20.014 29.2527 20.014 29.261 20.014C29.2693 20.014 29.2776 20.014 29.2858 20.014C29.294 20.014 29.3022 20.014 29.3104 20.014C29.3185 20.014 29.3267 20.014 29.3347 20.014C29.3428 20.014 29.3509 20.014 29.3589 20.014C29.3669 20.014 29.3749 20.014 29.3828 20.014C29.3908 20.014 29.3987 20.014 29.4065 20.014C29.4144 20.014 29.4222 20.014 29.43 20.014C29.4378 20.014 29.4456 20.014 29.4533 20.014C29.461 20.014 29.4687 20.014 29.4764 20.014C29.484 20.014 29.4916 20.014 29.4992 20.014C29.5068 20.014 29.5143 20.014 29.5219 20.014C29.5294 20.014 29.5368 20.014 29.5443 20.014C29.5517 20.014 29.5591 20.014 29.5665 20.014C29.5738 20.014 29.5811 20.014 29.5884 20.014C29.5957 20.014 29.603 20.014 29.6102 20.014C29.6174 20.014 29.6246 20.014 29.6317 20.014C29.6388 20.014 29.6459 20.014 29.653 20.014C29.6601 20.014 29.6671 20.014 29.6741 20.014C29.6811 20.014 29.688 20.014 29.6949 20.014C29.7018 20.014 29.7087 20.014 29.7156 20.014C29.7224 20.014 29.7292 20.014 29.736 20.014C29.7427 20.014 29.7495 20.014 29.7561 20.014C29.7628 20.014 29.7695 20.014 29.7761 20.014C29.7827 20.014 29.7893 20.014 29.7958 20.014C29.8023 20.014 29.8088 20.014 29.8153 20.014C29.8218 20.014 29.8282 20.014 29.8346 20.014C29.841 20.014 29.8473 20.014 29.8536 20.014C29.8599 20.014 29.8662 20.014 29.8724 20.014C29.8786 20.014 29.8848 20.014 29.891 20.014C29.8971 20.014 29.9032 20.014 29.9093 20.014C29.9154 20.014 29.9214 20.014 29.9274 20.014C29.9334 20.014 29.9394 20.014 29.9453 20.014C29.9512 20.014 29.9571 20.014 29.9629 20.014C29.9687 20.014 29.9745 20.014 29.9803 20.014C29.9861 20.014 29.9918 20.014 29.9975 20.014C30.0031 20.014 30.0088 20.014 30.0144 20.014C30.02 20.014 30.0255 20.014 30.0311 20.014C30.0366 20.014 30.0421 20.014 30.0475 20.014C30.053 20.014 30.0584 20.014 30.0637 20.014C30.0691 20.014 30.0744 20.014 30.0797 20.014C30.085 20.014 30.0902 20.014 30.0954 20.014C30.1006 20.014 30.1058 20.014 30.1109 20.014C30.116 20.014 30.1211 20.014 30.1261 20.014C30.1312 20.014 30.1362 20.014 30.1411 20.014C30.1461 20.014 30.151 20.014 30.1559 20.014C30.1608 20.014 30.1656 20.014 30.1704 20.014C30.1752 20.014 30.1799 20.014 30.1846 20.014C30.1894 20.014 30.194 20.014 30.1987 20.014C30.2033 20.014 30.2079 20.014 30.2124 20.014C30.217 20.014 30.2215 20.014 30.2259 20.014C30.2304 20.014 30.2348 20.014 30.2392 20.014C30.2436 20.014 30.2479 20.014 30.2522 20.014C30.2565 20.014 30.2608 20.014 30.265 20.014C30.2692 20.014 30.2734 20.014 30.2775 20.014C30.2817 20.014 30.2857 20.014 30.2898 20.014C30.2938 20.014 30.2978 20.014 30.3018 20.014C30.3058 20.014 30.3097 20.014 30.3136 20.014C30.3174 20.014 30.3213 20.014 30.3251 20.014C30.3289 20.014 30.3326 20.014 30.3363 20.014C30.34 20.014 30.3437 20.014 30.3473 20.014C30.3509 20.014 30.3545 20.014 30.3581 20.014C30.3616 20.014 30.3651 20.014 30.3685 20.014C30.372 20.014 30.3754 20.014 30.3788 20.014C30.3821 20.014 30.3855 20.014 30.3887 20.014C30.392 20.014 30.3952 20.014 30.3984 20.014C30.4016 20.014 30.4048 20.014 30.4079 20.014C30.411 20.014 30.414 20.014 30.4171 20.014C30.4201 20.014 30.4231 20.014 30.426 20.014C30.4289 20.014 30.4318 20.014 30.4346 20.014C30.4375 20.014 30.4403 20.014 30.443 20.014C30.4458 20.014 30.4485 20.014 30.4512 20.014C30.4538 20.014 30.4565 20.014 30.459 20.014C30.4616 20.014 30.4642 20.014 30.4666 20.014C30.4691 20.014 30.4716 20.014 30.474 20.014C30.4764 20.014 30.4787 20.014 30.4811 20.014C30.4834 20.014 30.4856 20.014 30.4879 20.014C30.4901 20.014 30.4923 20.014 30.4944 20.014C30.4965 20.014 30.4986 20.014 30.5007 20.014C30.5027 20.014 30.5047 20.014 30.5066 20.014C30.5086 20.014 30.5105 20.014 30.5124 20.014C30.5142 20.014 30.516 20.014 30.5178 20.014C30.5196 20.014 30.5213 20.014 30.523 20.014C30.5247 20.014 30.5263 20.014 30.5279 20.014C30.5295 20.014 30.531 20.014 30.5325 20.014C30.534 20.014 30.5355 20.014 30.5369 20.014C30.5383 20.014 30.5396 20.014 30.541 20.014C30.5423 20.014 30.5435 20.014 30.5448 20.014C30.546 20.014 30.5472 20.014 30.5483 20.014C30.5494 20.014 30.5505 20.014 30.5515 20.014C30.5526 20.014 30.5536 20.014 30.5545 20.014C30.5555 20.014 30.5564 20.014 30.5572 20.014C30.5581 20.014 30.5589 20.014 30.5596 20.014C30.5604 20.014 30.5611 20.014 30.5617 20.014C30.5624 20.014 30.563 20.014 30.5636 20.014C30.5642 20.014 30.5647 20.014 30.5652 20.014C30.5656 20.014 30.5661 20.014 30.5664 20.014C30.5668 20.014 30.5672 20.014 30.5674 20.014C30.5677 20.014 30.568 20.014 30.5682 20.014C30.5684 20.014 30.5685 20.014 30.5686 20.014C30.5687 20.014 30.5687 20.014 30.5687 10.014C30.5687 0.0140381 30.5687 0.0140381 30.5686 0.0140381C30.5685 0.0140381 30.5684 0.0140381 30.5682 0.0140381C30.568 0.0140381 30.5677 0.0140381 30.5674 0.0140381C30.5672 0.0140381 30.5668 0.0140381 30.5664 0.0140381C30.5661 0.0140381 30.5656 0.0140381 30.5652 0.0140381C30.5647 0.0140381 30.5642 0.0140381 30.5636 0.0140381C30.563 0.0140381 30.5624 0.0140381 30.5617 0.0140381C30.5611 0.0140381 30.5604 0.0140381 30.5596 0.0140381C30.5589 0.0140381 30.5581 0.0140381 30.5572 0.0140381C30.5564 0.0140381 30.5555 0.0140381 30.5545 0.0140381C30.5536 0.0140381 30.5526 0.0140381 30.5515 0.0140381C30.5505 0.0140381 30.5494 0.0140381 30.5483 0.0140381C30.5472 0.0140381 30.546 0.0140381 30.5448 0.0140381C30.5435 0.0140381 30.5423 0.0140381 30.541 0.0140381C30.5396 0.0140381 30.5383 0.0140381 30.5369 0.0140381C30.5355 0.0140381 30.534 0.0140381 30.5325 0.0140381C30.531 0.0140381 30.5295 0.0140381 30.5279 0.0140381C30.5263 0.0140381 30.5247 0.0140381 30.523 0.0140381C30.5213 0.0140381 30.5196 0.0140381 30.5178 0.0140381C30.516 0.0140381 30.5142 0.0140381 30.5124 0.0140381C30.5105 0.0140381 30.5086 0.0140381 30.5066 0.0140381C30.5047 0.0140381 30.5027 0.0140381 30.5007 0.0140381C30.4986 0.0140381 30.4965 0.0140381 30.4944 0.0140381C30.4923 0.0140381 30.4901 0.0140381 30.4879 0.0140381C30.4856 0.0140381 30.4834 0.0140381 30.4811 0.0140381C30.4787 0.0140381 30.4764 0.0140381 30.474 0.0140381C30.4716 0.0140381 30.4691 0.0140381 30.4666 0.0140381C30.4642 0.0140381 30.4616 0.0140381 30.459 0.0140381C30.4565 0.0140381 30.4538 0.0140381 30.4512 0.0140381C30.4485 0.0140381 30.4458 0.0140381 30.443 0.0140381C30.4403 0.0140381 30.4375 0.0140381 30.4346 0.0140381C30.4318 0.0140381 30.4289 0.0140381 30.426 0.0140381C30.4231 0.0140381 30.4201 0.0140381 30.4171 0.0140381C30.414 0.0140381 30.411 0.0140381 30.4079 0.0140381C30.4048 0.0140381 30.4016 0.0140381 30.3984 0.0140381C30.3952 0.0140381 30.392 0.0140381 30.3887 0.0140381C30.3855 0.0140381 30.3821 0.0140381 30.3788 0.0140381C30.3754 0.0140381 30.372 0.0140381 30.3685 0.0140381C30.3651 0.0140381 30.3616 0.0140381 30.3581 0.0140381C30.3545 0.0140381 30.3509 0.0140381 30.3473 0.0140381C30.3437 0.0140381 30.34 0.0140381 30.3363 0.0140381C30.3326 0.0140381 30.3289 0.0140381 30.3251 0.0140381C30.3213 0.0140381 30.3174 0.0140381 30.3136 0.0140381C30.3097 0.0140381 30.3058 0.0140381 30.3018 0.0140381C30.2978 0.0140381 30.2938 0.0140381 30.2898 0.0140381C30.2857 0.0140381 30.2817 0.0140381 30.2775 0.0140381C30.2734 0.0140381 30.2692 0.0140381 30.265 0.0140381C30.2608 0.0140381 30.2565 0.0140381 30.2522 0.0140381C30.2479 0.0140381 30.2436 0.0140381 30.2392 0.0140381C30.2348 0.0140381 30.2304 0.0140381 30.2259 0.0140381C30.2215 0.0140381 30.217 0.0140381 30.2124 0.0140381C30.2079 0.0140381 30.2033 0.0140381 30.1987 0.0140381C30.194 0.0140381 30.1894 0.0140381 30.1846 0.0140381C30.1799 0.0140381 30.1752 0.0140381 30.1704 0.0140381C30.1656 0.0140381 30.1608 0.0140381 30.1559 0.0140381C30.151 0.0140381 30.1461 0.0140381 30.1411 0.0140381C30.1362 0.0140381 30.1312 0.0140381 30.1261 0.0140381C30.1211 0.0140381 30.116 0.0140381 30.1109 0.0140381C30.1058 0.0140381 30.1006 0.0140381 30.0954 0.0140381C30.0902 0.0140381 30.085 0.0140381 30.0797 0.0140381C30.0744 0.0140381 30.0691 0.0140381 30.0637 0.0140381C30.0584 0.0140381 30.053 0.0140381 30.0475 0.0140381C30.0421 0.0140381 30.0366 0.0140381 30.0311 0.0140381C30.0255 0.0140381 30.02 0.0140381 30.0144 0.0140381C30.0088 0.0140381 30.0031 0.0140381 29.9975 0.0140381C29.9918 0.0140381 29.9861 0.0140381 29.9803 0.0140381C29.9745 0.0140381 29.9687 0.0140381 29.9629 0.0140381C29.9571 0.0140381 29.9512 0.0140381 29.9453 0.0140381C29.9394 0.0140381 29.9334 0.0140381 29.9274 0.0140381C29.9214 0.0140381 29.9154 0.0140381 29.9093 0.0140381C29.9032 0.0140381 29.8971 0.0140381 29.891 0.0140381C29.8848 0.0140381 29.8786 0.0140381 29.8724 0.0140381C29.8662 0.0140381 29.8599 0.0140381 29.8536 0.0140381C29.8473 0.0140381 29.841 0.0140381 29.8346 0.0140381C29.8282 0.0140381 29.8218 0.0140381 29.8153 0.0140381C29.8088 0.0140381 29.8023 0.0140381 29.7958 0.0140381C29.7893 0.0140381 29.7827 0.0140381 29.7761 0.0140381C29.7695 0.0140381 29.7628 0.0140381 29.7561 0.0140381C29.7495 0.0140381 29.7427 0.0140381 29.736 0.0140381C29.7292 0.0140381 29.7224 0.0140381 29.7156 0.0140381C29.7087 0.0140381 29.7018 0.0140381 29.6949 0.0140381C29.688 0.0140381 29.6811 0.0140381 29.6741 0.0140381C29.6671 0.0140381 29.6601 0.0140381 29.653 0.0140381C29.6459 0.0140381 29.6388 0.0140381 29.6317 0.0140381C29.6246 0.0140381 29.6174 0.0140381 29.6102 0.0140381C29.603 0.0140381 29.5957 0.0140381 29.5884 0.0140381C29.5811 0.0140381 29.5738 0.0140381 29.5665 0.0140381C29.5591 0.0140381 29.5517 0.0140381 29.5443 0.0140381C29.5368 0.0140381 29.5294 0.0140381 29.5219 0.0140381C29.5143 0.0140381 29.5068 0.0140381 29.4992 0.0140381C29.4916 0.0140381 29.484 0.0140381 29.4764 0.0140381C29.4687 0.0140381 29.461 0.0140381 29.4533 0.0140381C29.4456 0.0140381 29.4378 0.0140381 29.43 0.0140381C29.4222 0.0140381 29.4144 0.0140381 29.4065 0.0140381C29.3987 0.0140381 29.3908 0.0140381 29.3828 0.0140381C29.3749 0.0140381 29.3669 0.0140381 29.3589 0.0140381C29.3509 0.0140381 29.3428 0.0140381 29.3347 0.0140381C29.3267 0.0140381 29.3185 0.0140381 29.3104 0.0140381C29.3022 0.0140381 29.294 0.0140381 29.2858 0.0140381C29.2776 0.0140381 29.2693 0.0140381 29.261 0.0140381C29.2527 0.0140381 29.2444 0.0140381 29.2361 0.0140381C29.2277 0.0140381 29.2193 0.0140381 29.2109 0.0140381C29.2024 0.0140381 29.1939 0.0140381 29.1854 0.0140381C29.1769 0.0140381 29.1684 0.0140381 29.1598 0.0140381C29.1513 0.0140381 29.1426 0.0140381 29.134 0.0140381C29.1254 0.0140381 29.1167 0.0140381 29.108 0.0140381C29.0993 0.0140381 29.0905 0.0140381 29.0817 0.0140381C29.073 0.0140381 29.0641 0.0140381 29.0553 0.0140381C29.0464 0.0140381 29.0376 0.0140381 29.0286 0.0140381C29.0197 0.0140381 29.0108 0.0140381 29.0018 0.0140381C28.9928 0.0140381 28.9838 0.0140381 28.9747 0.0140381C28.9657 0.0140381 28.9566 0.0140381 28.9475 0.0140381C28.9384 0.0140381 28.9292 0.0140381 28.92 0.0140381C28.9108 0.0140381 28.9016 0.0140381 28.8924 0.0140381C28.8831 0.0140381 28.8738 0.0140381 28.8645 0.0140381C28.8552 0.0140381 28.8458 0.0140381 28.8364 0.0140381C28.8271 0.0140381 28.8176 0.0140381 28.8082 0.0140381C28.7987 0.0140381 28.7892 0.0140381 28.7797 0.0140381C28.7702 0.0140381 28.7607 0.0140381 28.7511 0.0140381C28.7415 0.0140381 28.7319 0.0140381 28.7222 0.0140381C28.7126 0.0140381 28.7029 0.0140381 28.6932 0.0140381C28.6835 0.0140381 28.6737 0.0140381 28.6639 0.0140381C28.6542 0.0140381 28.6443 0.0140381 28.6345 0.0140381C28.6247 0.0140381 28.6148 0.0140381 28.6049 0.0140381C28.595 0.0140381 28.585 0.0140381 28.5751 0.0140381C28.5651 0.0140381 28.5551 0.0140381 28.545 0.0140381C28.535 0.0140381 28.5249 0.0140381 28.5148 0.0140381C28.5047 0.0140381 28.4946 0.0140381 28.4845 0.0140381C28.4743 0.0140381 28.4641 0.0140381 28.4539 0.0140381C28.4436 0.0140381 28.4334 0.0140381 28.4231 0.0140381C28.4128 0.0140381 28.4025 0.0140381 28.3921 0.0140381C28.3818 0.0140381 28.3714 0.0140381 28.361 0.0140381C28.3506 0.0140381 28.3401 0.0140381 28.3297 0.0140381C28.3192 0.0140381 28.3087 0.0140381 28.2981 0.0140381C28.2876 0.0140381 28.277 0.0140381 28.2664 0.0140381C28.2558 0.0140381 28.2452 0.0140381 28.2346 0.0140381C28.2239 0.0140381 28.2132 0.0140381 28.2025 0.0140381C28.1918 0.0140381 28.181 0.0140381 28.1702 0.0140381C28.1595 0.0140381 28.1486 0.0140381 28.1378 0.0140381C28.127 0.0140381 28.1161 0.0140381 28.1052 0.0140381C28.0943 0.0140381 28.0834 0.0140381 28.0724 0.0140381C28.0614 0.0140381 28.0504 0.0140381 28.0394 0.0140381C28.0284 0.0140381 28.0173 0.0140381 28.0063 0.0140381C27.9952 0.0140381 27.9841 0.0140381 27.9729 0.0140381C27.9618 0.0140381 27.9506 0.0140381 27.9394 0.0140381C27.9282 0.0140381 27.917 0.0140381 27.9057 0.0140381C27.8945 0.0140381 27.8832 0.0140381 27.8719 0.0140381C27.8606 0.0140381 27.8492 0.0140381 27.8378 0.0140381C27.8265 0.0140381 27.8151 0.0140381 27.8036 0.0140381C27.7922 0.0140381 27.7807 0.0140381 27.7693 0.0140381C27.7578 0.0140381 27.7462 0.0140381 27.7347 0.0140381C27.7232 0.0140381 27.7116 0.0140381 27.7 0.0140381C27.6884 0.0140381 27.6767 0.0140381 27.6651 0.0140381C27.6534 0.0140381 27.6417 0.0140381 27.63 0.0140381C27.6183 0.0140381 27.6065 0.0140381 27.5948 0.0140381C27.583 0.0140381 27.5712 0.0140381 27.5594 0.0140381C27.5475 0.0140381 27.5357 0.0140381 27.5238 0.0140381C27.5119 0.0140381 27.5 0.0140381 27.488 0.0140381C27.4761 0.0140381 27.4641 0.0140381 27.4521 0.0140381C27.4401 0.0140381 27.4281 0.0140381 27.416 0.0140381C27.404 0.0140381 27.3919 0.0140381 27.3798 0.0140381C27.3677 0.0140381 27.3556 0.0140381 27.3434 0.0140381C27.3312 0.0140381 27.319 0.0140381 27.3068 0.0140381C27.2946 0.0140381 27.2824 0.0140381 27.2701 0.0140381C27.2578 0.0140381 27.2455 0.0140381 27.2332 0.0140381C27.2209 0.0140381 27.2085 0.0140381 27.1962 0.0140381C27.1838 0.0140381 27.1714 0.0140381 27.1589 0.0140381C27.1465 0.0140381 27.134 0.0140381 27.1216 0.0140381C27.1091 0.0140381 27.0966 0.0140381 27.084 0.0140381C27.0715 0.0140381 27.0589 0.0140381 27.0463 0.0140381C27.0337 0.0140381 27.0211 0.0140381 27.0085 0.0140381C26.9958 0.0140381 26.9832 0.0140381 26.9705 0.0140381C26.9578 0.0140381 26.9451 0.0140381 26.9323 0.0140381C26.9196 0.0140381 26.9068 0.0140381 26.894 0.0140381C26.8812 0.0140381 26.8684 0.0140381 26.8555 0.0140381C26.8427 0.0140381 26.8298 0.0140381 26.8169 0.0140381C26.804 0.0140381 26.7911 0.0140381 26.7781 0.0140381C26.7652 0.0140381 26.7522 0.0140381 26.7392 0.0140381C26.7262 0.0140381 26.7132 0.0140381 26.7001 0.0140381C26.6871 0.0140381 26.674 0.0140381 26.6609 0.0140381C26.6478 0.0140381 26.6347 0.0140381 26.6215 0.0140381C26.6083 0.0140381 26.5952 0.0140381 26.582 0.0140381C26.5688 0.0140381 26.5555 0.0140381 26.5423 0.0140381C26.529 0.0140381 26.5158 0.0140381 26.5025 0.0140381C26.4892 0.0140381 26.4758 0.0140381 26.4625 0.0140381C26.4491 0.0140381 26.4358 0.0140381 26.4224 0.0140381C26.409 0.0140381 26.3955 0.0140381 26.3821 0.0140381C26.3687 0.0140381 26.3552 0.0140381 26.3417 0.0140381C26.3282 0.0140381 26.3147 0.0140381 26.3011 0.0140381C26.2876 0.0140381 26.274 0.0140381 26.2604 0.0140381C26.2469 0.0140381 26.2332 0.0140381 26.2196 0.0140381C26.206 0.0140381 26.1923 0.0140381 26.1786 0.0140381C26.1649 0.0140381 26.1512 0.0140381 26.1375 0.0140381C26.1238 0.0140381 26.11 0.0140381 26.0962 0.0140381C26.0825 0.0140381 26.0687 0.0140381 26.0548 0.0140381C26.041 0.0140381 26.0272 0.0140381 26.0133 0.0140381C25.9994 0.0140381 25.9855 0.0140381 25.9716 0.0140381C25.9577 0.0140381 25.9438 0.0140381 25.9298 0.0140381C25.9159 0.0140381 25.9019 0.0140381 25.8879 0.0140381C25.8739 0.0140381 25.8598 0.0140381 25.8458 0.0140381C25.8317 0.0140381 25.8177 0.0140381 25.8036 0.0140381C25.7895 0.0140381 25.7754 0.0140381 25.7612 0.0140381C25.7471 0.0140381 25.7329 0.0140381 25.7187 0.0140381C25.7045 0.0140381 25.6903 0.0140381 25.6761 0.0140381C25.6619 0.0140381 25.6476 0.0140381 25.6334 0.0140381C25.6191 0.0140381 25.6048 0.0140381 25.5905 0.0140381C25.5762 0.0140381 25.5618 0.0140381 25.5475 0.0140381C25.5331 0.0140381 25.5187 0.0140381 25.5043 0.0140381C25.4899 0.0140381 25.4755 0.0140381 25.4611 0.0140381C25.4466 0.0140381 25.4322 0.0140381 25.4177 0.0140381C25.4032 0.0140381 25.3887 0.0140381 25.3742 0.0140381C25.3596 0.0140381 25.3451 0.0140381 25.3305 0.0140381C25.3159 0.0140381 25.3013 0.0140381 25.2867 0.0140381C25.2721 0.0140381 25.2575 0.0140381 25.2428 0.0140381C25.2282 0.0140381 25.2135 0.0140381 25.1988 0.0140381C25.1841 0.0140381 25.1694 0.0140381 25.1547 0.0140381C25.1399 0.0140381 25.1252 0.0140381 25.1104 0.0140381C25.0956 0.0140381 25.0808 0.0140381 25.066 0.0140381C25.0512 0.0140381 25.0364 0.0140381 25.0215 0.0140381C25.0066 0.0140381 24.9918 0.0140381 24.9769 0.0140381C24.962 0.0140381 24.9471 0.0140381 24.9321 0.0140381C24.9172 0.0140381 24.9022 0.0140381 24.8872 0.0140381C24.8723 0.0140381 24.8573 0.0140381 24.8423 0.0140381C24.8272 0.0140381 24.8122 0.0140381 24.7972 0.0140381C24.7821 0.0140381 24.767 0.0140381 24.7519 0.0140381C24.7368 0.0140381 24.7217 0.0140381 24.7066 0.0140381C24.6915 0.0140381 24.6763 0.0140381 24.6611 0.0140381C24.646 0.0140381 24.6308 0.0140381 24.6156 0.0140381C24.6004 0.0140381 24.5852 0.0140381 24.5699 0.0140381C24.5547 0.0140381 24.5394 0.0140381 24.5241 0.0140381C24.5088 0.0140381 24.4935 0.0140381 24.4782 0.0140381C24.4629 0.0140381 24.4476 0.0140381 24.4322 0.0140381C24.4168 0.0140381 24.4015 0.0140381 24.3861 0.0140381C24.3707 0.0140381 24.3553 0.0140381 24.3398 0.0140381C24.3244 0.0140381 24.309 0.0140381 24.2935 0.0140381C24.278 0.0140381 24.2626 0.0140381 24.2471 0.0140381C24.2316 0.0140381 24.216 0.0140381 24.2005 0.0140381C24.185 0.0140381 24.1694 0.0140381 24.1538 0.0140381C24.1383 0.0140381 24.1227 0.0140381 24.1071 0.0140381C24.0915 0.0140381 24.0758 0.0140381 24.0602 0.0140381C24.0446 0.0140381 24.0289 0.0140381 24.0132 0.0140381C23.9975 0.0140381 23.9819 0.0140381 23.9661 0.0140381C23.9504 0.0140381 23.9347 0.0140381 23.919 0.0140381C23.9032 0.0140381 23.8875 0.0140381 23.8717 0.0140381C23.8559 0.0140381 23.8401 0.0140381 23.8243 0.0140381C23.8085 0.0140381 23.7926 0.0140381 23.7768 0.0140381C23.761 0.0140381 23.7451 0.0140381 23.7292 0.0140381C23.7133 0.0140381 23.6974 0.0140381 23.6815 0.0140381C23.6656 0.0140381 23.6497 0.0140381 23.6337 0.0140381C23.6178 0.0140381 23.6018 0.0140381 23.5859 0.0140381C23.5699 0.0140381 23.5539 0.0140381 23.5379 0.0140381C23.5219 0.0140381 23.5059 0.0140381 23.4898 0.0140381C23.4738 0.0140381 23.4577 0.0140381 23.4417 0.0140381C23.4256 0.0140381 23.4095 0.0140381 23.3934 0.0140381C23.3773 0.0140381 23.3612 0.0140381 23.345 0.0140381C23.3289 0.0140381 23.3128 0.0140381 23.2966 0.0140381C23.2804 0.0140381 23.2642 0.0140381 23.248 0.0140381C23.2319 0.0140381 23.2156 0.0140381 23.1994 0.0140381C23.1832 0.0140381 23.167 0.0140381 23.1507 0.0140381C23.1344 0.0140381 23.1182 0.0140381 23.1019 0.0140381C23.0856 0.0140381 23.0693 0.0140381 23.053 0.0140381C23.0367 0.0140381 23.0203 0.0140381 23.004 0.0140381C22.9877 0.0140381 22.9713 0.0140381 22.9549 0.0140381C22.9386 0.0140381 22.9222 0.0140381 22.9058 0.0140381C22.8894 0.0140381 22.8729 0.0140381 22.8565 0.0140381C22.8401 0.0140381 22.8236 0.0140381 22.8072 0.0140381C22.7907 0.0140381 22.7743 0.0140381 22.7578 0.0140381C22.7413 0.0140381 22.7248 0.0140381 22.7083 0.0140381C22.6918 0.0140381 22.6752 0.0140381 22.6587 0.0140381C22.6421 0.0140381 22.6256 0.0140381 22.609 0.0140381C22.5925 0.0140381 22.5759 0.0140381 22.5593 0.0140381C22.5427 0.0140381 22.5261 0.0140381 22.5094 0.0140381C22.4928 0.0140381 22.4762 0.0140381 22.4595 0.0140381C22.4429 0.0140381 22.4262 0.0140381 22.4096 0.0140381C22.3929 0.0140381 22.3762 0.0140381 22.3595 0.0140381C22.3428 0.0140381 22.3261 0.0140381 22.3094 0.0140381C22.2926 0.0140381 22.2759 0.0140381 22.2591 0.0140381C22.2424 0.0140381 22.2256 0.0140381 22.2088 0.0140381C22.1921 0.0140381 22.1753 0.0140381 22.1585 0.0140381C22.1417 0.0140381 22.1249 0.0140381 22.108 0.0140381C22.0912 0.0140381 22.0744 0.0140381 22.0575 0.0140381C22.0407 0.0140381 22.0238 0.0140381 22.0069 0.0140381C21.99 0.0140381 21.9732 0.0140381 21.9563 0.0140381C21.9394 0.0140381 21.9224 0.0140381 21.9055 0.0140381C21.8886 0.0140381 21.8717 0.0140381 21.8547 0.0140381C21.8378 0.0140381 21.8208 0.0140381 21.8038 0.0140381C21.7869 0.0140381 21.7699 0.0140381 21.7529 0.0140381C21.7359 0.0140381 21.7189 0.0140381 21.7019 0.0140381C21.6849 0.0140381 21.6679 0.0140381 21.6508 0.0140381C21.6338 0.0140381 21.6167 0.0140381 21.5997 0.0140381C21.5826 0.0140381 21.5655 0.0140381 21.5485 0.0140381C21.5314 0.0140381 21.5143 0.0140381 21.4972 0.0140381C21.4801 0.0140381 21.463 0.0140381 21.4458 0.0140381C21.4287 0.0140381 21.4116 0.0140381 21.3944 0.0140381C21.3773 0.0140381 21.3601 0.0140381 21.343 0.0140381C21.3258 0.0140381 21.3086 0.0140381 21.2914 0.0140381C21.2742 0.0140381 21.2571 0.0140381 21.2398 0.0140381C21.2226 0.0140381 21.2054 0.0140381 21.1882 0.0140381C21.171 0.0140381 21.1537 0.0140381 21.1365 0.0140381C21.1192 0.0140381 21.102 0.0140381 21.0847 0.0140381C21.0674 0.0140381 21.0502 0.0140381 21.0329 0.0140381C21.0156 0.0140381 20.9983 0.0140381 20.981 0.0140381C20.9637 0.0140381 20.9464 0.0140381 20.929 0.0140381C20.9117 0.0140381 20.8944 0.0140381 20.877 0.0140381C20.8597 0.0140381 20.8423 0.0140381 20.825 0.0140381C20.8076 0.0140381 20.7903 0.0140381 20.7729 0.0140381C20.7555 0.0140381 20.7381 0.0140381 20.7207 0.0140381C20.7033 0.0140381 20.6859 0.0140381 20.6685 0.0140381C20.6511 0.0140381 20.6337 0.0140381 20.6162 0.0140381C20.5988 0.0140381 20.5814 0.0140381 20.5639 0.0140381C20.5465 0.0140381 20.529 0.0140381 20.5115 0.0140381C20.4941 0.0140381 20.4766 0.0140381 20.4591 0.0140381C20.4416 0.0140381 20.4241 0.0140381 20.4066 0.0140381C20.3891 0.0140381 20.3716 0.0140381 20.3541 0.0140381C20.3366 0.0140381 20.3191 0.0140381 20.3016 0.0140381C20.284 0.0140381 20.2665 0.0140381 20.2489 0.0140381C20.2314 0.0140381 20.2138 0.0140381 20.1963 0.0140381C20.1787 0.0140381 20.1611 0.0140381 20.1436 0.0140381C20.126 0.0140381 20.1084 0.0140381 20.0908 0.0140381C20.0732 0.0140381 20.0556 0.0140381 20.038 0.0140381C20.0204 0.0140381 20.0028 0.0140381 19.9852 0.0140381C19.9676 0.0140381 19.9499 0.0140381 19.9323 0.0140381C19.9147 0.0140381 19.897 0.0140381 19.8794 0.0140381C19.8617 0.0140381 19.8441 0.0140381 19.8264 0.0140381C19.8088 0.0140381 19.7911 0.0140381 19.7734 0.0140381C19.7557 0.0140381 19.7381 0.0140381 19.7204 0.0140381C19.7027 0.0140381 19.685 0.0140381 19.6673 0.0140381C19.6496 0.0140381 19.6319 0.0140381 19.6142 0.0140381C19.5965 0.0140381 19.5787 0.0140381 19.561 0.0140381C19.5433 0.0140381 19.5256 0.0140381 19.5078 0.0140381C19.4901 0.0140381 19.4723 0.0140381 19.4546 0.0140381C19.4368 0.0140381 19.4191 0.0140381 19.4013 0.0140381C19.3836 0.0140381 19.3658 0.0140381 19.348 0.0140381C19.3303 0.0140381 19.3125 0.0140381 19.2947 0.0140381C19.2769 0.0140381 19.2591 0.0140381 19.2413 0.0140381C19.2236 0.0140381 19.2058 0.0140381 19.188 0.0140381C19.1701 0.0140381 19.1523 0.0140381 19.1345 0.0140381C19.1167 0.0140381 19.0989 0.0140381 19.0811 0.0140381C19.0632 0.0140381 19.0454 0.0140381 19.0276 0.0140381C19.0098 0.0140381 18.9919 0.0140381 18.9741 0.0140381C18.9562 0.0140381 18.9384 0.0140381 18.9205 0.0140381C18.9027 0.0140381 18.8848 0.0140381 18.867 0.0140381C18.8491 0.0140381 18.8312 0.0140381 18.8134 0.0140381C18.7955 0.0140381 18.7776 0.0140381 18.7597 0.0140381C18.7419 0.0140381 18.724 0.0140381 18.7061 0.0140381C18.6882 0.0140381 18.6703 0.0140381 18.6524 0.0140381C18.6345 0.0140381 18.6166 0.0140381 18.5987 0.0140381C18.5808 0.0140381 18.5629 0.0140381 18.545 0.0140381C18.5271 0.0140381 18.5092 0.0140381 18.4913 0.0140381C18.4734 0.0140381 18.4554 0.0140381 18.4375 0.0140381C18.4196 0.0140381 18.4017 0.0140381 18.3837 0.0140381C18.3658 0.0140381 18.3479 0.0140381 18.3299 0.0140381C18.312 0.0140381 18.2941 0.0140381 18.2761 0.0140381C18.2582 0.0140381 18.2402 0.0140381 18.2223 0.0140381C18.2043 0.0140381 18.1864 0.0140381 18.1684 0.0140381C18.1505 0.0140381 18.1325 0.0140381 18.1146 0.0140381C18.0966 0.0140381 18.0786 0.0140381 18.0607 0.0140381C18.0427 0.0140381 18.0248 0.0140381 18.0068 0.0140381C17.9888 0.0140381 17.9708 0.0140381 17.9529 0.0140381C17.9349 0.0140381 17.9169 0.0140381 17.8989 0.0140381C17.881 0.0140381 17.863 0.0140381 17.845 0.0140381C17.827 0.0140381 17.809 0.0140381 17.791 0.0140381C17.7731 0.0140381 17.7551 0.0140381 17.7371 0.0140381C17.7191 0.0140381 17.7011 0.0140381 17.6831 0.0140381C17.6651 0.0140381 17.6471 0.0140381 17.6291 0.0140381C17.6111 0.0140381 17.5931 0.0140381 17.5751 0.0140381C17.5571 0.0140381 17.5391 0.0140381 17.5211 0.0140381C17.5031 0.0140381 17.4851 0.0140381 17.4671 0.0140381C17.4491 0.0140381 17.4311 0.0140381 17.4131 0.0140381C17.3951 0.0140381 17.3771 0.0140381 17.3591 0.0140381C17.3411 0.0140381 17.3231 0.0140381 17.3051 0.0140381C17.2871 0.0140381 17.269 0.0140381 17.251 0.0140381C17.233 0.0140381 17.215 0.0140381 17.197 0.0140381C17.179 0.0140381 17.161 0.0140381 17.143 0.0140381C17.125 0.0140381 17.1069 0.0140381 17.0889 0.0140381C17.0709 0.0140381 17.0529 0.0140381 17.0349 0.0140381C17.0169 0.0140381 16.9989 0.0140381 16.9808 0.0140381C16.9628 0.0140381 16.9448 0.0140381 16.9268 0.0140381C16.9088 0.0140381 16.8908 0.0140381 16.8728 0.0140381C16.8548 0.0140381 16.8367 0.0140381 16.8187 0.0140381C16.8007 0.0140381 16.7827 0.0140381 16.7647 0.0140381C16.7467 0.0140381 16.7287 0.0140381 16.7107 0.0140381C16.6927 0.0140381 16.6746 0.0140381 16.6566 0.0140381C16.6386 0.0140381 16.6206 0.0140381 16.6026 0.0140381C16.5846 0.0140381 16.5666 0.0140381 16.5486 0.0140381C16.5306 0.0140381 16.5126 0.0140381 16.4946 0.0140381C16.4766 0.0140381 16.4586 0.0140381 16.4406 0.0140381C16.4226 0.0140381 16.4046 0.0140381 16.3866 0.0140381C16.3686 0.0140381 16.3506 0.0140381 16.3326 0.0140381C16.3146 0.0140381 16.2966 0.0140381 16.2786 0.0140381C16.2606 0.0140381 16.2426 0.0140381 16.2247 0.0140381C16.2067 0.0140381 16.1887 0.0140381 16.1707 0.0140381C16.1527 0.0140381 16.1347 0.0140381 16.1168 0.0140381C16.0988 0.0140381 16.0808 0.0140381 16.0628 0.0140381C16.0448 0.0140381 16.0269 0.0140381 16.0089 0.0140381C15.9909 0.0140381 15.973 0.0140381 15.955 0.0140381C15.937 0.0140381 15.9191 0.0140381 15.9011 0.0140381C15.8831 0.0140381 15.8652 0.0140381 15.8472 0.0140381C15.8293 0.0140381 15.8113 0.0140381 15.7934 0.0140381C15.7754 0.0140381 15.7575 0.0140381 15.7395 0.0140381C15.7216 0.0140381 15.7036 0.0140381 15.6857 0.0140381C15.6678 0.0140381 15.6498 0.0140381 15.6319 0.0140381C15.614 0.0140381 15.596 0.0140381 15.5781 0.0140381C15.5602 0.0140381 15.5423 0.0140381 15.5243 0.0140381C15.5064 0.0140381 15.4885 0.0140381 15.4706 0.0140381C15.4527 0.0140381 15.4348 0.0140381 15.4169 0.0140381C15.399 0.0140381 15.3811 0.0140381 15.3632 0.0140381C15.3453 0.0140381 15.3274 0.0140381 15.3095 0.0140381C15.2916 0.0140381 15.2737 0.0140381 15.2558 0.0140381C15.238 0.0140381 15.2201 0.0140381 15.2022 0.0140381C15.1843 0.0140381 15.1665 0.0140381 15.1486 0.0140381C15.1307 0.0140381 15.1129 0.0140381 15.095 0.0140381C15.0772 0.0140381 15.0593 0.0140381 15.0415 0.0140381C15.0236 0.0140381 15.0058 0.0140381 14.988 0.0140381C14.9701 0.0140381 14.9523 0.0140381 14.9345 0.0140381C14.9166 0.0140381 14.8988 0.0140381 14.881 0.0140381C14.8632 0.0140381 14.8454 0.0140381 14.8276 0.0140381C14.8098 0.0140381 14.7919 0.0140381 14.7742 0.0140381C14.7564 0.0140381 14.7386 0.0140381 14.7208 0.0140381C14.703 0.0140381 14.6852 0.0140381 14.6674 0.0140381C14.6497 0.0140381 14.6319 0.0140381 14.6141 0.0140381C14.5964 0.0140381 14.5786 0.0140381 14.5609 0.0140381C14.5431 0.0140381 14.5254 0.0140381 14.5076 0.0140381C14.4899 0.0140381 14.4721 0.0140381 14.4544 0.0140381C14.4367 0.0140381 14.419 0.0140381 14.4012 0.0140381C14.3835 0.0140381 14.3658 0.0140381 14.3481 0.0140381C14.3304 0.0140381 14.3127 0.0140381 14.295 0.0140381C14.2773 0.0140381 14.2596 0.0140381 14.242 0.0140381C14.2243 0.0140381 14.2066 0.0140381 14.1889 0.0140381C14.1713 0.0140381 14.1536 0.0140381 14.136 0.0140381C14.1183 0.0140381 14.1007 0.0140381 14.083 0.0140381C14.0654 0.0140381 14.0478 0.0140381 14.0301 0.0140381C14.0125 0.0140381 13.9949 0.0140381 13.9773 0.0140381C13.9597 0.0140381 13.9421 0.0140381 13.9245 0.0140381C13.9069 0.0140381 13.8893 0.0140381 13.8717 0.0140381C13.8541 0.0140381 13.8365 0.0140381 13.819 0.0140381C13.8014 0.0140381 13.7838 0.0140381 13.7663 0.0140381C13.7487 0.0140381 13.7312 0.0140381 13.7137 0.0140381C13.6961 0.0140381 13.6786 0.0140381 13.6611 0.0140381C13.6436 0.0140381 13.626 0.0140381 13.6085 0.0140381C13.591 0.0140381 13.5735 0.0140381 13.5561 0.0140381C13.5386 0.0140381 13.5211 0.0140381 13.5036 0.0140381C13.4861 0.0140381 13.4687 0.0140381 13.4512 0.0140381C13.4338 0.0140381 13.4163 0.0140381 13.3989 0.0140381C13.3814 0.0140381 13.364 0.0140381 13.3466 0.0140381C13.3292 0.0140381 13.3118 0.0140381 13.2944 0.0140381C13.277 0.0140381 13.2596 0.0140381 13.2422 0.0140381C13.2248 0.0140381 13.2074 0.0140381 13.19 0.0140381C13.1727 0.0140381 13.1553 0.0140381 13.138 0.0140381C13.1206 0.0140381 13.1033 0.0140381 13.0859 0.0140381C13.0686 0.0140381 13.0513 0.0140381 13.034 0.0140381C13.0167 0.0140381 12.9994 0.0140381 12.9821 0.0140381C12.9648 0.0140381 12.9475 0.0140381 12.9302 0.0140381C12.913 0.0140381 12.8957 0.0140381 12.8784 0.0140381C12.8612 0.0140381 12.8439 0.0140381 12.8267 0.0140381C12.8095 0.0140381 12.7922 0.0140381 12.775 0.0140381C12.7578 0.0140381 12.7406 0.0140381 12.7234 0.0140381C12.7062 0.0140381 12.689 0.0140381 12.6719 0.0140381C12.6547 0.0140381 12.6375 0.0140381 12.6204 0.0140381C12.6032 0.0140381 12.5861 0.0140381 12.5689 0.0140381C12.5518 0.0140381 12.5347 0.0140381 12.5176 0.0140381C12.5005 0.0140381 12.4834 0.0140381 12.4663 0.0140381C12.4492 0.0140381 12.4321 0.0140381 12.415 0.0140381C12.398 0.0140381 12.3809 0.0140381 12.3639 0.0140381C12.3468 0.0140381 12.3298 0.0140381 12.3128 0.0140381C12.2957 0.0140381 12.2787 0.0140381 12.2617 0.0140381C12.2447 0.0140381 12.2277 0.0140381 12.2108 0.0140381C12.1938 0.0140381 12.1768 0.0140381 12.1599 0.0140381C12.1429 0.0140381 12.126 0.0140381 12.109 0.0140381C12.0921 0.0140381 12.0752 0.0140381 12.0583 0.0140381C12.0414 0.0140381 12.0245 0.0140381 12.0076 0.0140381C11.9907 0.0140381 11.9738 0.0140381 11.957 0.0140381C11.9401 0.0140381 11.9233 0.0140381 11.9064 0.0140381C11.8896 0.0140381 11.8728 0.0140381 11.856 0.0140381C11.8392 0.0140381 11.8224 0.0140381 11.8056 0.0140381C11.7888 0.0140381 11.772 0.0140381 11.7552 0.0140381C11.7385 0.0140381 11.7217 0.0140381 11.705 0.0140381C11.6883 0.0140381 11.6715 0.0140381 11.6548 0.0140381C11.6381 0.0140381 11.6214 0.0140381 11.6047 0.0140381C11.5881 0.0140381 11.5714 0.0140381 11.5547 0.0140381C11.5381 0.0140381 11.5214 0.0140381 11.5048 0.0140381C11.4882 0.0140381 11.4715 0.0140381 11.4549 0.0140381C11.4383 0.0140381 11.4217 0.0140381 11.4052 0.0140381C11.3886 0.0140381 11.372 0.0140381 11.3555 0.0140381C11.3389 0.0140381 11.3224 0.0140381 11.3059 0.0140381C11.2893 0.0140381 11.2728 0.0140381 11.2563 0.0140381C11.2398 0.0140381 11.2233 0.0140381 11.2069 0.0140381C11.1904 0.0140381 11.174 0.0140381 11.1575 0.0140381C11.1411 0.0140381 11.1246 0.0140381 11.1082 0.0140381C11.0918 0.0140381 11.0754 0.0140381 11.059 0.0140381C11.0427 0.0140381 11.0263 0.0140381 11.0099 0.0140381C10.9936 0.0140381 10.9772 0.0140381 10.9609 0.0140381C10.9446 0.0140381 10.9283 0.0140381 10.912 0.0140381C10.8957 0.0140381 10.8794 0.0140381 10.8631 0.0140381C10.8469 0.0140381 10.8306 0.0140381 10.8144 0.0140381C10.7982 0.0140381 10.7819 0.0140381 10.7657 0.0140381C10.7495 0.0140381 10.7333 0.0140381 10.7172 0.0140381C10.701 0.0140381 10.6848 0.0140381 10.6687 0.0140381C10.6525 0.0140381 10.6364 0.0140381 10.6203 0.0140381C10.6042 0.0140381 10.5881 0.0140381 10.572 0.0140381C10.5559 0.0140381 10.5398 0.0140381 10.5238 0.0140381C10.5077 0.0140381 10.4917 0.0140381 10.4757 0.0140381C10.4597 0.0140381 10.4437 0.0140381 10.4277 0.0140381C10.4117 0.0140381 10.3957 0.0140381 10.3798 0.0140381C10.3638 0.0140381 10.3479 0.0140381 10.3319 0.0140381C10.316 0.0140381 10.3001 0.0140381 10.2842 0.0140381C10.2683 0.0140381 10.2525 0.0140381 10.2366 0.0140381C10.2207 0.0140381 10.2049 0.0140381 10.1891 0.0140381C10.1733 0.0140381 10.1574 0.0140381 10.1417 0.0140381C10.1259 0.0140381 10.1101 0.0140381 10.0943 0.0140381C10.0786 0.0140381 10.0628 0.0140381 10.0471 0.0140381C10.0314 0.0140381 10.0157 0.0140381 10 0.0140381V20.014ZM20.7632 11.9766L34.5443 80.8305L54.1553 76.9053L40.3743 8.05147L20.7632 11.9766ZM34.5414 80.8161C35.4688 85.4855 38.0091 89.6799 41.7174 92.6652L54.2588 77.0858C54.2068 77.044 54.1712 76.9852 54.1582 76.9197L34.5414 80.8161ZM41.7174 92.6652C45.4258 95.6504 50.066 97.2362 54.8258 97.145L54.4426 77.1487C54.3758 77.1499 54.3108 77.1277 54.2588 77.0858L41.7174 92.6652ZM54.6342 97.1468H104.616V77.1468H54.6342V97.1468ZM104.425 97.145C109.184 97.2362 113.825 95.6504 117.533 92.6652L104.992 77.0858C104.94 77.1277 104.875 77.1499 104.808 77.1487L104.425 97.145ZM117.533 92.6652C121.241 89.6799 123.781 85.4855 124.709 80.8161L105.092 76.9197C105.079 76.9852 105.044 77.044 104.992 77.0858L117.533 92.6652ZM124.724 80.7412L132.951 37.5982L113.305 33.8517L105.078 76.9946L124.724 80.7412ZM123.128 35.725C123.128 25.725 123.128 25.725 123.127 25.725C123.127 25.725 123.126 25.725 123.126 25.725C123.125 25.725 123.124 25.725 123.123 25.725C123.121 25.725 123.12 25.725 123.118 25.725C123.117 25.725 123.115 25.725 123.113 25.725C123.111 25.725 123.109 25.725 123.106 25.725C123.104 25.725 123.101 25.725 123.098 25.725C123.096 25.725 123.093 25.725 123.089 25.725C123.086 25.725 123.083 25.725 123.079 25.725C123.075 25.725 123.072 25.725 123.068 25.725C123.064 25.725 123.059 25.725 123.055 25.725C123.051 25.725 123.046 25.725 123.041 25.725C123.036 25.725 123.031 25.725 123.026 25.725C123.021 25.725 123.016 25.725 123.01 25.725C123.004 25.725 122.999 25.725 122.993 25.725C122.987 25.725 122.981 25.725 122.974 25.725C122.968 25.725 122.961 25.725 122.954 25.725C122.948 25.725 122.941 25.725 122.934 25.725C122.926 25.725 122.919 25.725 122.912 25.725C122.904 25.725 122.896 25.725 122.888 25.725C122.881 25.725 122.872 25.725 122.864 25.725C122.856 25.725 122.847 25.725 122.839 25.725C122.83 25.725 122.821 25.725 122.812 25.725C122.803 25.725 122.794 25.725 122.784 25.725C122.775 25.725 122.765 25.725 122.755 25.725C122.746 25.725 122.736 25.725 122.725 25.725C122.715 25.725 122.705 25.725 122.694 25.725C122.684 25.725 122.673 25.725 122.662 25.725C122.651 25.725 122.64 25.725 122.628 25.725C122.617 25.725 122.606 25.725 122.594 25.725C122.582 25.725 122.57 25.725 122.558 25.725C122.546 25.725 122.534 25.725 122.521 25.725C122.509 25.725 122.496 25.725 122.483 25.725C122.471 25.725 122.458 25.725 122.444 25.725C122.431 25.725 122.418 25.725 122.404 25.725C122.391 25.725 122.377 25.725 122.363 25.725C122.349 25.725 122.335 25.725 122.321 25.725C122.306 25.725 122.292 25.725 122.277 25.725C122.263 25.725 122.248 25.725 122.233 25.725C122.218 25.725 122.202 25.725 122.187 25.725C122.172 25.725 122.156 25.725 122.14 25.725C122.125 25.725 122.109 25.725 122.092 25.725C122.076 25.725 122.06 25.725 122.044 25.725C122.027 25.725 122.01 25.725 121.994 25.725C121.977 25.725 121.96 25.725 121.943 25.725C121.925 25.725 121.908 25.725 121.89 25.725C121.873 25.725 121.855 25.725 121.837 25.725C121.819 25.725 121.801 25.725 121.783 25.725C121.765 25.725 121.746 25.725 121.728 25.725C121.709 25.725 121.69 25.725 121.671 25.725C121.652 25.725 121.633 25.725 121.614 25.725C121.594 25.725 121.575 25.725 121.555 25.725C121.536 25.725 121.516 25.725 121.496 25.725C121.476 25.725 121.455 25.725 121.435 25.725C121.415 25.725 121.394 25.725 121.373 25.725C121.353 25.725 121.332 25.725 121.311 25.725C121.29 25.725 121.268 25.725 121.247 25.725C121.226 25.725 121.204 25.725 121.182 25.725C121.16 25.725 121.139 25.725 121.116 25.725C121.094 25.725 121.072 25.725 121.05 25.725C121.027 25.725 121.005 25.725 120.982 25.725C120.959 25.725 120.936 25.725 120.913 25.725C120.89 25.725 120.866 25.725 120.843 25.725C120.819 25.725 120.796 25.725 120.772 25.725C120.748 25.725 120.724 25.725 120.7 25.725C120.676 25.725 120.652 25.725 120.627 25.725C120.603 25.725 120.578 25.725 120.553 25.725C120.528 25.725 120.503 25.725 120.478 25.725C120.453 25.725 120.428 25.725 120.402 25.725C120.377 25.725 120.351 25.725 120.325 25.725C120.3 25.725 120.274 25.725 120.248 25.725C120.221 25.725 120.195 25.725 120.169 25.725C120.142 25.725 120.116 25.725 120.089 25.725C120.062 25.725 120.035 25.725 120.008 25.725C119.981 25.725 119.953 25.725 119.926 25.725C119.899 25.725 119.871 25.725 119.843 25.725C119.815 25.725 119.787 25.725 119.759 25.725C119.731 25.725 119.703 25.725 119.675 25.725C119.646 25.725 119.618 25.725 119.589 25.725C119.56 25.725 119.531 25.725 119.502 25.725C119.473 25.725 119.444 25.725 119.414 25.725C119.385 25.725 119.355 25.725 119.326 25.725C119.296 25.725 119.266 25.725 119.236 25.725C119.206 25.725 119.176 25.725 119.146 25.725C119.115 25.725 119.085 25.725 119.054 25.725C119.023 25.725 118.993 25.725 118.962 25.725C118.931 25.725 118.9 25.725 118.868 25.725C118.837 25.725 118.806 25.725 118.774 25.725C118.742 25.725 118.711 25.725 118.679 25.725C118.647 25.725 118.615 25.725 118.583 25.725C118.55 25.725 118.518 25.725 118.486 25.725C118.453 25.725 118.42 25.725 118.387 25.725C118.355 25.725 118.322 25.725 118.289 25.725C118.255 25.725 118.222 25.725 118.189 25.725C118.155 25.725 118.122 25.725 118.088 25.725C118.054 25.725 118.02 25.725 117.986 25.725C117.952 25.725 117.918 25.725 117.884 25.725C117.849 25.725 117.815 25.725 117.78 25.725C117.745 25.725 117.711 25.725 117.676 25.725C117.641 25.725 117.606 25.725 117.57 25.725C117.535 25.725 117.5 25.725 117.464 25.725C117.429 25.725 117.393 25.725 117.357 25.725C117.321 25.725 117.285 25.725 117.249 25.725C117.213 25.725 117.177 25.725 117.14 25.725C117.104 25.725 117.067 25.725 117.03 25.725C116.994 25.725 116.957 25.725 116.92 25.725C116.883 25.725 116.846 25.725 116.808 25.725C116.771 25.725 116.734 25.725 116.696 25.725C116.658 25.725 116.621 25.725 116.583 25.725C116.545 25.725 116.507 25.725 116.469 25.725C116.43 25.725 116.392 25.725 116.354 25.725C116.315 25.725 116.276 25.725 116.238 25.725C116.199 25.725 116.16 25.725 116.121 25.725C116.082 25.725 116.043 25.725 116.003 25.725C115.964 25.725 115.925 25.725 115.885 25.725C115.845 25.725 115.806 25.725 115.766 25.725C115.726 25.725 115.686 25.725 115.646 25.725C115.606 25.725 115.565 25.725 115.525 25.725C115.484 25.725 115.444 25.725 115.403 25.725C115.362 25.725 115.321 25.725 115.28 25.725C115.239 25.725 115.198 25.725 115.157 25.725C115.116 25.725 115.074 25.725 115.033 25.725C114.991 25.725 114.949 25.725 114.908 25.725C114.866 25.725 114.824 25.725 114.782 25.725C114.74 25.725 114.697 25.725 114.655 25.725C114.613 25.725 114.57 25.725 114.527 25.725C114.485 25.725 114.442 25.725 114.399 25.725C114.356 25.725 114.313 25.725 114.27 25.725C114.227 25.725 114.183 25.725 114.14 25.725C114.096 25.725 114.053 25.725 114.009 25.725C113.965 25.725 113.922 25.725 113.878 25.725C113.834 25.725 113.789 25.725 113.745 25.725C113.701 25.725 113.657 25.725 113.612 25.725C113.567 25.725 113.523 25.725 113.478 25.725C113.433 25.725 113.388 25.725 113.343 25.725C113.298 25.725 113.253 25.725 113.208 25.725C113.163 25.725 113.117 25.725 113.072 25.725C113.026 25.725 112.98 25.725 112.934 25.725C112.889 25.725 112.843 25.725 112.797 25.725C112.751 25.725 112.704 25.725 112.658 25.725C112.612 25.725 112.565 25.725 112.519 25.725C112.472 25.725 112.425 25.725 112.378 25.725C112.332 25.725 112.285 25.725 112.238 25.725C112.19 25.725 112.143 25.725 112.096 25.725C112.049 25.725 112.001 25.725 111.953 25.725C111.906 25.725 111.858 25.725 111.81 25.725C111.762 25.725 111.715 25.725 111.666 25.725C111.618 25.725 111.57 25.725 111.522 25.725C111.473 25.725 111.425 25.725 111.376 25.725C111.328 25.725 111.279 25.725 111.23 25.725C111.181 25.725 111.132 25.725 111.083 25.725C111.034 25.725 110.985 25.725 110.936 25.725C110.886 25.725 110.837 25.725 110.787 25.725C110.738 25.725 110.688 25.725 110.638 25.725C110.589 25.725 110.539 25.725 110.489 25.725C110.439 25.725 110.388 25.725 110.338 25.725C110.288 25.725 110.237 25.725 110.187 25.725C110.136 25.725 110.086 25.725 110.035 25.725C109.984 25.725 109.933 25.725 109.882 25.725C109.831 25.725 109.78 25.725 109.729 25.725C109.678 25.725 109.627 25.725 109.575 25.725C109.524 25.725 109.472 25.725 109.42 25.725C109.369 25.725 109.317 25.725 109.265 25.725C109.213 25.725 109.161 25.725 109.109 25.725C109.057 25.725 109.004 25.725 108.952 25.725C108.9 25.725 108.847 25.725 108.795 25.725C108.742 25.725 108.689 25.725 108.636 25.725C108.584 25.725 108.531 25.725 108.478 25.725C108.424 25.725 108.371 25.725 108.318 25.725C108.265 25.725 108.211 25.725 108.158 25.725C108.104 25.725 108.051 25.725 107.997 25.725C107.943 25.725 107.889 25.725 107.835 25.725C107.782 25.725 107.727 25.725 107.673 25.725C107.619 25.725 107.565 25.725 107.51 25.725C107.456 25.725 107.402 25.725 107.347 25.725C107.292 25.725 107.238 25.725 107.183 25.725C107.128 25.725 107.073 25.725 107.018 25.725C106.963 25.725 106.908 25.725 106.853 25.725C106.797 25.725 106.742 25.725 106.686 25.725C106.631 25.725 106.575 25.725 106.52 25.725C106.464 25.725 106.408 25.725 106.352 25.725C106.296 25.725 106.24 25.725 106.184 25.725C106.128 25.725 106.072 25.725 106.016 25.725C105.959 25.725 105.903 25.725 105.846 25.725C105.79 25.725 105.733 25.725 105.676 25.725C105.62 25.725 105.563 25.725 105.506 25.725C105.449 25.725 105.392 25.725 105.335 25.725C105.278 25.725 105.22 25.725 105.163 25.725C105.106 25.725 105.048 25.725 104.991 25.725C104.933 25.725 104.876 25.725 104.818 25.725C104.76 25.725 104.702 25.725 104.644 25.725C104.586 25.725 104.528 25.725 104.47 25.725C104.412 25.725 104.354 25.725 104.295 25.725C104.237 25.725 104.179 25.725 104.12 25.725C104.061 25.725 104.003 25.725 103.944 25.725C103.885 25.725 103.826 25.725 103.767 25.725C103.709 25.725 103.649 25.725 103.59 25.725C103.531 25.725 103.472 25.725 103.413 25.725C103.353 25.725 103.294 25.725 103.234 25.725C103.175 25.725 103.115 25.725 103.056 25.725C102.996 25.725 102.936 25.725 102.876 25.725C102.816 25.725 102.756 25.725 102.696 25.725C102.636 25.725 102.576 25.725 102.516 25.725C102.455 25.725 102.395 25.725 102.334 25.725C102.274 25.725 102.213 25.725 102.153 25.725C102.092 25.725 102.031 25.725 101.97 25.725C101.91 25.725 101.849 25.725 101.788 25.725C101.727 25.725 101.666 25.725 101.604 25.725C101.543 25.725 101.482 25.725 101.42 25.725C101.359 25.725 101.298 25.725 101.236 25.725C101.174 25.725 101.113 25.725 101.051 25.725C100.989 25.725 100.927 25.725 100.866 25.725C100.804 25.725 100.742 25.725 100.68 25.725C100.617 25.725 100.555 25.725 100.493 25.725C100.431 25.725 100.368 25.725 100.306 25.725C100.243 25.725 100.181 25.725 100.118 25.725C100.056 25.725 99.9929 25.725 99.9301 25.725C99.8673 25.725 99.8044 25.725 99.7414 25.725C99.6785 25.725 99.6154 25.725 99.5523 25.725C99.4891 25.725 99.4259 25.725 99.3626 25.725C99.2993 25.725 99.2359 25.725 99.1724 25.725C99.1089 25.725 99.0454 25.725 98.9817 25.725C98.9181 25.725 98.8543 25.725 98.7905 25.725C98.7267 25.725 98.6628 25.725 98.5988 25.725C98.5348 25.725 98.4708 25.725 98.4066 25.725C98.3425 25.725 98.2783 25.725 98.214 25.725C98.1497 25.725 98.0853 25.725 98.0208 25.725C97.9563 25.725 97.8918 25.725 97.8272 25.725C97.7625 25.725 97.6978 25.725 97.633 25.725C97.5682 25.725 97.5034 25.725 97.4384 25.725C97.3735 25.725 97.3084 25.725 97.2433 25.725C97.1782 25.725 97.113 25.725 97.0478 25.725C96.9825 25.725 96.9172 25.725 96.8518 25.725C96.7863 25.725 96.7208 25.725 96.6553 25.725C96.5897 25.725 96.524 25.725 96.4583 25.725C96.3926 25.725 96.3268 25.725 96.2609 25.725C96.195 25.725 96.1291 25.725 96.063 25.725C95.997 25.725 95.9309 25.725 95.8647 25.725C95.7986 25.725 95.7323 25.725 95.666 25.725C95.5996 25.725 95.5332 25.725 95.4668 25.725C95.4003 25.725 95.3337 25.725 95.2671 25.725C95.2005 25.725 95.1338 25.725 95.067 25.725C95.0002 25.725 94.9334 25.725 94.8665 25.725C94.7996 25.725 94.7326 25.725 94.6655 25.725C94.5985 25.725 94.5313 25.725 94.4641 25.725C94.3969 25.725 94.3297 25.725 94.2623 25.725C94.195 25.725 94.1276 25.725 94.0601 25.725C93.9926 25.725 93.925 25.725 93.8574 25.725C93.7898 25.725 93.7221 25.725 93.6543 25.725C93.5866 25.725 93.5188 25.725 93.4509 25.725C93.383 25.725 93.315 25.725 93.247 25.725C93.1789 25.725 93.1108 25.725 93.0426 25.725C92.9745 25.725 92.9062 25.725 92.8379 25.725C92.7696 25.725 92.7013 25.725 92.6328 25.725C92.5644 25.725 92.4959 25.725 92.4273 25.725C92.3588 25.725 92.2901 25.725 92.2214 25.725C92.1527 25.725 92.084 25.725 92.0151 25.725C91.9463 25.725 91.8774 25.725 91.8084 25.725C91.7395 25.725 91.6705 25.725 91.6014 25.725C91.5323 25.725 91.4632 25.725 91.3939 25.725C91.3247 25.725 91.2555 25.725 91.1861 25.725C91.1168 25.725 91.0474 25.725 90.9779 25.725C90.9085 25.725 90.8389 25.725 90.7694 25.725C90.6998 25.725 90.6301 25.725 90.5604 25.725C90.4907 25.725 90.4209 25.725 90.3511 25.725C90.2813 25.725 90.2114 25.725 90.1415 25.725C90.0715 25.725 90.0015 25.725 89.9314 25.725C89.8614 25.725 89.7912 25.725 89.7211 25.725C89.6509 25.725 89.5806 25.725 89.5103 25.725C89.44 25.725 89.3697 25.725 89.2993 25.725C89.2288 25.725 89.1584 25.725 89.0878 25.725C89.0173 25.725 88.9467 25.725 88.8761 25.725C88.8054 25.725 88.7347 25.725 88.664 25.725C88.5932 25.725 88.5224 25.725 88.4515 25.725C88.3807 25.725 88.3097 25.725 88.2388 25.725C88.1678 25.725 88.0967 25.725 88.0257 25.725C87.9546 25.725 87.8834 25.725 87.8122 25.725C87.741 25.725 87.6698 25.725 87.5985 25.725C87.5272 25.725 87.4558 25.725 87.3844 25.725C87.313 25.725 87.2415 25.725 87.17 25.725C87.0985 25.725 87.0269 25.725 86.9553 25.725C86.8837 25.725 86.812 25.725 86.7403 25.725C86.6686 25.725 86.5968 25.725 86.525 25.725C86.4532 25.725 86.3813 25.725 86.3094 25.725C86.2375 25.725 86.1655 25.725 86.0935 25.725C86.0215 25.725 85.9494 25.725 85.8773 25.725C85.8051 25.725 85.733 25.725 85.6608 25.725C85.5885 25.725 85.5163 25.725 85.444 25.725C85.3716 25.725 85.2993 25.725 85.2269 25.725C85.1545 25.725 85.082 25.725 85.0095 25.725C84.937 25.725 84.8645 25.725 84.7919 25.725C84.7193 25.725 84.6466 25.725 84.5739 25.725C84.5012 25.725 84.4285 25.725 84.3557 25.725C84.283 25.725 84.2101 25.725 84.1373 25.725C84.0644 25.725 83.9915 25.725 83.9185 25.725C83.8456 25.725 83.7726 25.725 83.6995 25.725C83.6265 25.725 83.5534 25.725 83.4802 25.725C83.4071 25.725 83.3339 25.725 83.2607 25.725C83.1875 25.725 83.1143 25.725 83.041 25.725C82.9677 25.725 82.8943 25.725 82.8209 25.725C82.7475 25.725 82.6741 25.725 82.6006 25.725C82.5272 25.725 82.4537 25.725 82.3801 25.725C82.3066 25.725 82.233 25.725 82.1594 25.725C82.0857 25.725 82.0121 25.725 81.9384 25.725C81.8646 25.725 81.7909 25.725 81.7171 25.725C81.6433 25.725 81.5695 25.725 81.4957 25.725C81.4218 25.725 81.3479 25.725 81.2739 25.725C81.2 25.725 81.126 25.725 81.052 25.725C80.978 25.725 80.904 25.725 80.8299 25.725C80.7558 25.725 80.6817 25.725 80.6075 25.725C80.5334 25.725 80.4592 25.725 80.3849 25.725C80.3107 25.725 80.2364 25.725 80.1621 25.725C80.0878 25.725 80.0135 25.725 79.9391 25.725C79.8648 25.725 79.7904 25.725 79.7159 25.725C79.6415 25.725 79.567 25.725 79.4925 25.725C79.418 25.725 79.3435 25.725 79.2689 25.725C79.1943 25.725 79.1197 25.725 79.0451 25.725C78.9705 25.725 78.8958 25.725 78.8211 25.725C78.7464 25.725 78.6717 25.725 78.5969 25.725C78.5221 25.725 78.4473 25.725 78.3725 25.725C78.2977 25.725 78.2228 25.725 78.148 25.725C78.0731 25.725 77.9982 25.725 77.9232 25.725C77.8483 25.725 77.7733 25.725 77.6983 25.725C77.6233 25.725 77.5483 25.725 77.4732 25.725C77.3981 25.725 77.3231 25.725 77.2479 25.725C77.1728 25.725 77.0977 25.725 77.0225 25.725C76.9473 25.725 76.8721 25.725 76.7969 25.725C76.7217 25.725 76.6464 25.725 76.5712 25.725C76.4959 25.725 76.4206 25.725 76.3452 25.725C76.2699 25.725 76.1946 25.725 76.1192 25.725C76.0438 25.725 75.9684 25.725 75.893 25.725C75.8175 25.725 75.7421 25.725 75.6666 25.725C75.5911 25.725 75.5156 25.725 75.4401 25.725C75.3645 25.725 75.289 25.725 75.2134 25.725C75.1378 25.725 75.0623 25.725 74.9866 25.725C74.911 25.725 74.8354 25.725 74.7597 25.725C74.684 25.725 74.6084 25.725 74.5326 25.725C74.4569 25.725 74.3812 25.725 74.3055 25.725C74.2297 25.725 74.1539 25.725 74.0781 25.725C74.0024 25.725 73.9265 25.725 73.8507 25.725C73.7749 25.725 73.699 25.725 73.6232 25.725C73.5473 25.725 73.4714 25.725 73.3955 25.725C73.3196 25.725 73.2437 25.725 73.1677 25.725C73.0918 25.725 73.0158 25.725 72.9398 25.725C72.8638 25.725 72.7878 25.725 72.7118 25.725C72.6358 25.725 72.5598 25.725 72.4837 25.725C72.4077 25.725 72.3316 25.725 72.2555 25.725C72.1795 25.725 72.1034 25.725 72.0272 25.725C71.9511 25.725 71.875 25.725 71.7989 25.725C71.7227 25.725 71.6466 25.725 71.5704 25.725C71.4942 25.725 71.418 25.725 71.3418 25.725C71.2656 25.725 71.1894 25.725 71.1132 25.725C71.037 25.725 70.9607 25.725 70.8845 25.725C70.8082 25.725 70.7319 25.725 70.6557 25.725C70.5794 25.725 70.5031 25.725 70.4268 25.725C70.3505 25.725 70.2742 25.725 70.1978 25.725C70.1215 25.725 70.0452 25.725 69.9688 25.725C69.8925 25.725 69.8161 25.725 69.7397 25.725C69.6634 25.725 69.587 25.725 69.5106 25.725C69.4342 25.725 69.3578 25.725 69.2814 25.725C69.205 25.725 69.1286 25.725 69.0522 25.725C68.9757 25.725 68.8993 25.725 68.8229 25.725C68.7464 25.725 68.67 25.725 68.5935 25.725C68.5171 25.725 68.4406 25.725 68.3641 25.725C68.2877 25.725 68.2112 25.725 68.1347 25.725C68.0582 25.725 67.9817 25.725 67.9052 25.725C67.8287 25.725 67.7522 25.725 67.6757 25.725C67.5992 25.725 67.5227 25.725 67.4462 25.725C67.3697 25.725 67.2932 25.725 67.2166 25.725C67.1401 25.725 67.0636 25.725 66.9871 25.725C66.9105 25.725 66.834 25.725 66.7574 25.725C66.6809 25.725 66.6044 25.725 66.5278 25.725C66.4513 25.725 66.3747 25.725 66.2982 25.725C66.2216 25.725 66.1451 25.725 66.0685 25.725C65.992 25.725 65.9154 25.725 65.8389 25.725C65.7623 25.725 65.6857 25.725 65.6092 25.725C65.5326 25.725 65.4561 25.725 65.3795 25.725C65.303 25.725 65.2264 25.725 65.1498 25.725C65.0733 25.725 64.9967 25.725 64.9202 25.725C64.8436 25.725 64.7671 25.725 64.6905 25.725C64.614 25.725 64.5374 25.725 64.4609 25.725C64.3843 25.725 64.3078 25.725 64.2312 25.725C64.1547 25.725 64.0782 25.725 64.0016 25.725C63.9251 25.725 63.8486 25.725 63.772 25.725C63.6955 25.725 63.619 25.725 63.5425 25.725C63.4659 25.725 63.3894 25.725 63.3129 25.725C63.2364 25.725 63.1599 25.725 63.0834 25.725C63.0069 25.725 62.9304 25.725 62.8539 25.725C62.7774 25.725 62.7009 25.725 62.6245 25.725C62.548 25.725 62.4715 25.725 62.3951 25.725C62.3186 25.725 62.2421 25.725 62.1657 25.725C62.0893 25.725 62.0128 25.725 61.9364 25.725C61.86 25.725 61.7835 25.725 61.7071 25.725C61.6307 25.725 61.5543 25.725 61.4779 25.725C61.4015 25.725 61.3251 25.725 61.2488 25.725C61.1724 25.725 61.096 25.725 61.0197 25.725C60.9433 25.725 60.867 25.725 60.7906 25.725C60.7143 25.725 60.638 25.725 60.5616 25.725C60.4853 25.725 60.409 25.725 60.3328 25.725C60.2565 25.725 60.1802 25.725 60.1039 25.725C60.0277 25.725 59.9514 25.725 59.8752 25.725C59.7989 25.725 59.7227 25.725 59.6465 25.725C59.5703 25.725 59.4941 25.725 59.4179 25.725C59.3417 25.725 59.2656 25.725 59.1894 25.725C59.1132 25.725 59.0371 25.725 58.961 25.725C58.8849 25.725 58.8087 25.725 58.7327 25.725C58.6566 25.725 58.5805 25.725 58.5044 25.725C58.4284 25.725 58.3523 25.725 58.2763 25.725C58.2003 25.725 58.1243 25.725 58.0483 25.725C57.9723 25.725 57.8963 25.725 57.8203 25.725C57.7444 25.725 57.6684 25.725 57.5925 25.725C57.5166 25.725 57.4407 25.725 57.3648 25.725C57.2889 25.725 57.2131 25.725 57.1372 25.725C57.0614 25.725 56.9855 25.725 56.9097 25.725C56.8339 25.725 56.7581 25.725 56.6824 25.725C56.6066 25.725 56.5309 25.725 56.4551 25.725C56.3794 25.725 56.3037 25.725 56.228 25.725C56.1524 25.725 56.0767 25.725 56.0011 25.725C55.9254 25.725 55.8498 25.725 55.7742 25.725C55.6986 25.725 55.6231 25.725 55.5475 25.725C55.472 25.725 55.3965 25.725 55.321 25.725C55.2455 25.725 55.17 25.725 55.0945 25.725C55.0191 25.725 54.9437 25.725 54.8683 25.725C54.7929 25.725 54.7175 25.725 54.6421 25.725C54.5668 25.725 54.4915 25.725 54.4162 25.725C54.3409 25.725 54.2656 25.725 54.1904 25.725C54.1151 25.725 54.0399 25.725 53.9647 25.725C53.8895 25.725 53.8144 25.725 53.7392 25.725C53.6641 25.725 53.589 25.725 53.5139 25.725C53.4388 25.725 53.3638 25.725 53.2887 25.725C53.2137 25.725 53.1387 25.725 53.0638 25.725C52.9888 25.725 52.9139 25.725 52.839 25.725C52.764 25.725 52.6892 25.725 52.6143 25.725C52.5395 25.725 52.4647 25.725 52.3899 25.725C52.3151 25.725 52.2403 25.725 52.1656 25.725C52.0909 25.725 52.0162 25.725 51.9416 25.725C51.8669 25.725 51.7923 25.725 51.7177 25.725C51.6431 25.725 51.5685 25.725 51.494 25.725C51.4195 25.725 51.345 25.725 51.2705 25.725C51.196 25.725 51.1216 25.725 51.0472 25.725C50.9728 25.725 50.8985 25.725 50.8241 25.725C50.7498 25.725 50.6755 25.725 50.6013 25.725C50.527 25.725 50.4528 25.725 50.3786 25.725C50.3044 25.725 50.2303 25.725 50.1562 25.725C50.0821 25.725 50.008 25.725 49.9339 25.725C49.8599 25.725 49.7859 25.725 49.7119 25.725C49.638 25.725 49.5641 25.725 49.4902 25.725C49.4163 25.725 49.3424 25.725 49.2686 25.725C49.1948 25.725 49.121 25.725 49.0473 25.725C48.9736 25.725 48.8999 25.725 48.8262 25.725C48.7525 25.725 48.6789 25.725 48.6054 25.725C48.5318 25.725 48.4582 25.725 48.3847 25.725C48.3112 25.725 48.2378 25.725 48.1644 25.725C48.091 25.725 48.0176 25.725 47.9443 25.725C47.8709 25.725 47.7976 25.725 47.7244 25.725C47.6511 25.725 47.5779 25.725 47.5048 25.725C47.4316 25.725 47.3585 25.725 47.2854 25.725C47.2123 25.725 47.1393 25.725 47.0663 25.725C46.9933 25.725 46.9204 25.725 46.8475 25.725C46.7746 25.725 46.7017 25.725 46.6289 25.725C46.5561 25.725 46.4833 25.725 46.4106 25.725C46.3379 25.725 46.2652 25.725 46.1926 25.725C46.12 25.725 46.0474 25.725 45.9748 25.725C45.9023 25.725 45.8298 25.725 45.7574 25.725C45.6849 25.725 45.6125 25.725 45.5402 25.725C45.4678 25.725 45.3955 25.725 45.3233 25.725C45.251 25.725 45.1788 25.725 45.1067 25.725C45.0345 25.725 44.9624 25.725 44.8904 25.725C44.8183 25.725 44.7463 25.725 44.6743 25.725C44.6024 25.725 44.5305 25.725 44.4586 25.725C44.3867 25.725 44.3149 25.725 44.2432 25.725C44.1714 25.725 44.0997 25.725 44.0281 25.725C43.9564 25.725 43.8848 25.725 43.8133 25.725C43.7417 25.725 43.6702 25.725 43.5988 25.725C43.5273 25.725 43.4559 25.725 43.3846 25.725C43.3132 25.725 43.242 25.725 43.1707 25.725C43.0995 25.725 43.0283 25.725 42.9572 25.725C42.886 25.725 42.815 25.725 42.744 25.725C42.6729 25.725 42.602 25.725 42.5311 25.725C42.4602 25.725 42.3893 25.725 42.3185 25.725C42.2477 25.725 42.177 25.725 42.1063 25.725C42.0356 25.725 41.965 25.725 41.8944 25.725C41.8238 25.725 41.7533 25.725 41.6829 25.725C41.6124 25.725 41.542 25.725 41.4717 25.725C41.4013 25.725 41.331 25.725 41.2608 25.725C41.1906 25.725 41.1204 25.725 41.0503 25.725C40.9802 25.725 40.9101 25.725 40.8401 25.725C40.7702 25.725 40.7002 25.725 40.6304 25.725C40.5605 25.725 40.4907 25.725 40.4209 25.725C40.3512 25.725 40.2815 25.725 40.2119 25.725C40.1422 25.725 40.0727 25.725 40.0032 25.725C39.9337 25.725 39.8642 25.725 39.7948 25.725C39.7254 25.725 39.6561 25.725 39.5869 25.725C39.5176 25.725 39.4484 25.725 39.3793 25.725C39.3102 25.725 39.2411 25.725 39.1721 25.725C39.1031 25.725 39.0341 25.725 38.9653 25.725C38.8964 25.725 38.8276 25.725 38.7588 25.725C38.6901 25.725 38.6214 25.725 38.5528 25.725C38.4842 25.725 38.4156 25.725 38.3471 25.725C38.2787 25.725 38.2102 25.725 38.1419 25.725C38.0735 25.725 38.0053 25.725 37.937 25.725C37.8688 25.725 37.8007 25.725 37.7326 25.725C37.6645 25.725 37.5965 25.725 37.5285 25.725C37.4606 25.725 37.3927 25.725 37.3249 25.725C37.2571 25.725 37.1894 25.725 37.1217 25.725C37.054 25.725 36.9864 25.725 36.9189 25.725C36.8513 25.725 36.7839 25.725 36.7165 25.725C36.6491 25.725 36.5818 25.725 36.5145 25.725C36.4473 25.725 36.3801 25.725 36.313 25.725C36.2459 25.725 36.1788 25.725 36.1119 25.725C36.0449 25.725 35.978 25.725 35.9112 25.725C35.8443 25.725 35.7776 25.725 35.7109 25.725V45.725C35.7776 45.725 35.8443 45.725 35.9112 45.725C35.978 45.725 36.0449 45.725 36.1119 45.725C36.1788 45.725 36.2459 45.725 36.313 45.725C36.3801 45.725 36.4473 45.725 36.5145 45.725C36.5818 45.725 36.6491 45.725 36.7165 45.725C36.7839 45.725 36.8513 45.725 36.9189 45.725C36.9864 45.725 37.054 45.725 37.1217 45.725C37.1894 45.725 37.2571 45.725 37.3249 45.725C37.3927 45.725 37.4606 45.725 37.5285 45.725C37.5965 45.725 37.6645 45.725 37.7326 45.725C37.8007 45.725 37.8688 45.725 37.937 45.725C38.0053 45.725 38.0735 45.725 38.1419 45.725C38.2102 45.725 38.2787 45.725 38.3471 45.725C38.4156 45.725 38.4842 45.725 38.5528 45.725C38.6214 45.725 38.6901 45.725 38.7588 45.725C38.8276 45.725 38.8964 45.725 38.9653 45.725C39.0341 45.725 39.1031 45.725 39.1721 45.725C39.2411 45.725 39.3102 45.725 39.3793 45.725C39.4484 45.725 39.5176 45.725 39.5869 45.725C39.6561 45.725 39.7254 45.725 39.7948 45.725C39.8642 45.725 39.9337 45.725 40.0032 45.725C40.0727 45.725 40.1422 45.725 40.2119 45.725C40.2815 45.725 40.3512 45.725 40.4209 45.725C40.4907 45.725 40.5605 45.725 40.6304 45.725C40.7002 45.725 40.7702 45.725 40.8401 45.725C40.9101 45.725 40.9802 45.725 41.0503 45.725C41.1204 45.725 41.1906 45.725 41.2608 45.725C41.331 45.725 41.4013 45.725 41.4717 45.725C41.542 45.725 41.6124 45.725 41.6829 45.725C41.7533 45.725 41.8238 45.725 41.8944 45.725C41.965 45.725 42.0356 45.725 42.1063 45.725C42.177 45.725 42.2477 45.725 42.3185 45.725C42.3893 45.725 42.4602 45.725 42.5311 45.725C42.602 45.725 42.6729 45.725 42.744 45.725C42.815 45.725 42.886 45.725 42.9572 45.725C43.0283 45.725 43.0995 45.725 43.1707 45.725C43.242 45.725 43.3132 45.725 43.3846 45.725C43.4559 45.725 43.5273 45.725 43.5988 45.725C43.6702 45.725 43.7417 45.725 43.8133 45.725C43.8848 45.725 43.9564 45.725 44.0281 45.725C44.0997 45.725 44.1714 45.725 44.2432 45.725C44.3149 45.725 44.3867 45.725 44.4586 45.725C44.5305 45.725 44.6024 45.725 44.6743 45.725C44.7463 45.725 44.8183 45.725 44.8904 45.725C44.9624 45.725 45.0345 45.725 45.1067 45.725C45.1788 45.725 45.251 45.725 45.3233 45.725C45.3955 45.725 45.4678 45.725 45.5402 45.725C45.6125 45.725 45.6849 45.725 45.7574 45.725C45.8298 45.725 45.9023 45.725 45.9748 45.725C46.0474 45.725 46.12 45.725 46.1926 45.725C46.2652 45.725 46.3379 45.725 46.4106 45.725C46.4833 45.725 46.5561 45.725 46.6289 45.725C46.7017 45.725 46.7746 45.725 46.8475 45.725C46.9204 45.725 46.9933 45.725 47.0663 45.725C47.1393 45.725 47.2123 45.725 47.2854 45.725C47.3585 45.725 47.4316 45.725 47.5048 45.725C47.5779 45.725 47.6511 45.725 47.7244 45.725C47.7976 45.725 47.8709 45.725 47.9443 45.725C48.0176 45.725 48.091 45.725 48.1644 45.725C48.2378 45.725 48.3112 45.725 48.3847 45.725C48.4582 45.725 48.5318 45.725 48.6054 45.725C48.6789 45.725 48.7525 45.725 48.8262 45.725C48.8999 45.725 48.9736 45.725 49.0473 45.725C49.121 45.725 49.1948 45.725 49.2686 45.725C49.3424 45.725 49.4163 45.725 49.4902 45.725C49.5641 45.725 49.638 45.725 49.7119 45.725C49.7859 45.725 49.8599 45.725 49.9339 45.725C50.008 45.725 50.0821 45.725 50.1562 45.725C50.2303 45.725 50.3044 45.725 50.3786 45.725C50.4528 45.725 50.527 45.725 50.6013 45.725C50.6755 45.725 50.7498 45.725 50.8241 45.725C50.8985 45.725 50.9728 45.725 51.0472 45.725C51.1216 45.725 51.196 45.725 51.2705 45.725C51.345 45.725 51.4195 45.725 51.494 45.725C51.5685 45.725 51.6431 45.725 51.7177 45.725C51.7923 45.725 51.8669 45.725 51.9416 45.725C52.0162 45.725 52.0909 45.725 52.1656 45.725C52.2403 45.725 52.3151 45.725 52.3899 45.725C52.4647 45.725 52.5395 45.725 52.6143 45.725C52.6892 45.725 52.764 45.725 52.839 45.725C52.9139 45.725 52.9888 45.725 53.0638 45.725C53.1387 45.725 53.2137 45.725 53.2887 45.725C53.3638 45.725 53.4388 45.725 53.5139 45.725C53.589 45.725 53.6641 45.725 53.7392 45.725C53.8144 45.725 53.8895 45.725 53.9647 45.725C54.0399 45.725 54.1151 45.725 54.1904 45.725C54.2656 45.725 54.3409 45.725 54.4162 45.725C54.4915 45.725 54.5668 45.725 54.6421 45.725C54.7175 45.725 54.7929 45.725 54.8683 45.725C54.9437 45.725 55.0191 45.725 55.0945 45.725C55.17 45.725 55.2455 45.725 55.321 45.725C55.3965 45.725 55.472 45.725 55.5475 45.725C55.6231 45.725 55.6986 45.725 55.7742 45.725C55.8498 45.725 55.9254 45.725 56.0011 45.725C56.0767 45.725 56.1524 45.725 56.228 45.725C56.3037 45.725 56.3794 45.725 56.4551 45.725C56.5309 45.725 56.6066 45.725 56.6824 45.725C56.7581 45.725 56.8339 45.725 56.9097 45.725C56.9855 45.725 57.0614 45.725 57.1372 45.725C57.2131 45.725 57.2889 45.725 57.3648 45.725C57.4407 45.725 57.5166 45.725 57.5925 45.725C57.6684 45.725 57.7444 45.725 57.8203 45.725C57.8963 45.725 57.9723 45.725 58.0483 45.725C58.1243 45.725 58.2003 45.725 58.2763 45.725C58.3523 45.725 58.4284 45.725 58.5044 45.725C58.5805 45.725 58.6566 45.725 58.7327 45.725C58.8087 45.725 58.8849 45.725 58.961 45.725C59.0371 45.725 59.1132 45.725 59.1894 45.725C59.2656 45.725 59.3417 45.725 59.4179 45.725C59.4941 45.725 59.5703 45.725 59.6465 45.725C59.7227 45.725 59.7989 45.725 59.8752 45.725C59.9514 45.725 60.0277 45.725 60.1039 45.725C60.1802 45.725 60.2565 45.725 60.3328 45.725C60.409 45.725 60.4853 45.725 60.5616 45.725C60.638 45.725 60.7143 45.725 60.7906 45.725C60.867 45.725 60.9433 45.725 61.0197 45.725C61.096 45.725 61.1724 45.725 61.2488 45.725C61.3251 45.725 61.4015 45.725 61.4779 45.725C61.5543 45.725 61.6307 45.725 61.7071 45.725C61.7835 45.725 61.86 45.725 61.9364 45.725C62.0128 45.725 62.0893 45.725 62.1657 45.725C62.2421 45.725 62.3186 45.725 62.3951 45.725C62.4715 45.725 62.548 45.725 62.6245 45.725C62.7009 45.725 62.7774 45.725 62.8539 45.725C62.9304 45.725 63.0069 45.725 63.0834 45.725C63.1599 45.725 63.2364 45.725 63.3129 45.725C63.3894 45.725 63.4659 45.725 63.5425 45.725C63.619 45.725 63.6955 45.725 63.772 45.725C63.8486 45.725 63.9251 45.725 64.0016 45.725C64.0782 45.725 64.1547 45.725 64.2312 45.725C64.3078 45.725 64.3843 45.725 64.4609 45.725C64.5374 45.725 64.614 45.725 64.6905 45.725C64.7671 45.725 64.8436 45.725 64.9202 45.725C64.9967 45.725 65.0733 45.725 65.1498 45.725C65.2264 45.725 65.303 45.725 65.3795 45.725C65.4561 45.725 65.5326 45.725 65.6092 45.725C65.6857 45.725 65.7623 45.725 65.8389 45.725C65.9154 45.725 65.992 45.725 66.0685 45.725C66.1451 45.725 66.2216 45.725 66.2982 45.725C66.3747 45.725 66.4513 45.725 66.5278 45.725C66.6044 45.725 66.6809 45.725 66.7574 45.725C66.834 45.725 66.9105 45.725 66.9871 45.725C67.0636 45.725 67.1401 45.725 67.2166 45.725C67.2932 45.725 67.3697 45.725 67.4462 45.725C67.5227 45.725 67.5992 45.725 67.6757 45.725C67.7522 45.725 67.8287 45.725 67.9052 45.725C67.9817 45.725 68.0582 45.725 68.1347 45.725C68.2112 45.725 68.2877 45.725 68.3641 45.725C68.4406 45.725 68.5171 45.725 68.5935 45.725C68.67 45.725 68.7464 45.725 68.8229 45.725C68.8993 45.725 68.9757 45.725 69.0522 45.725C69.1286 45.725 69.205 45.725 69.2814 45.725C69.3578 45.725 69.4342 45.725 69.5106 45.725C69.587 45.725 69.6634 45.725 69.7397 45.725C69.8161 45.725 69.8925 45.725 69.9688 45.725C70.0452 45.725 70.1215 45.725 70.1978 45.725C70.2742 45.725 70.3505 45.725 70.4268 45.725C70.5031 45.725 70.5794 45.725 70.6557 45.725C70.7319 45.725 70.8082 45.725 70.8845 45.725C70.9607 45.725 71.037 45.725 71.1132 45.725C71.1894 45.725 71.2656 45.725 71.3418 45.725C71.418 45.725 71.4942 45.725 71.5704 45.725C71.6466 45.725 71.7227 45.725 71.7989 45.725C71.875 45.725 71.9511 45.725 72.0272 45.725C72.1034 45.725 72.1795 45.725 72.2555 45.725C72.3316 45.725 72.4077 45.725 72.4837 45.725C72.5598 45.725 72.6358 45.725 72.7118 45.725C72.7878 45.725 72.8638 45.725 72.9398 45.725C73.0158 45.725 73.0918 45.725 73.1677 45.725C73.2437 45.725 73.3196 45.725 73.3955 45.725C73.4714 45.725 73.5473 45.725 73.6232 45.725C73.699 45.725 73.7749 45.725 73.8507 45.725C73.9265 45.725 74.0024 45.725 74.0781 45.725C74.1539 45.725 74.2297 45.725 74.3055 45.725C74.3812 45.725 74.4569 45.725 74.5326 45.725C74.6084 45.725 74.684 45.725 74.7597 45.725C74.8354 45.725 74.911 45.725 74.9866 45.725C75.0623 45.725 75.1378 45.725 75.2134 45.725C75.289 45.725 75.3645 45.725 75.4401 45.725C75.5156 45.725 75.5911 45.725 75.6666 45.725C75.7421 45.725 75.8175 45.725 75.893 45.725C75.9684 45.725 76.0438 45.725 76.1192 45.725C76.1946 45.725 76.2699 45.725 76.3452 45.725C76.4206 45.725 76.4959 45.725 76.5712 45.725C76.6464 45.725 76.7217 45.725 76.7969 45.725C76.8721 45.725 76.9473 45.725 77.0225 45.725C77.0977 45.725 77.1728 45.725 77.2479 45.725C77.3231 45.725 77.3981 45.725 77.4732 45.725C77.5483 45.725 77.6233 45.725 77.6983 45.725C77.7733 45.725 77.8483 45.725 77.9232 45.725C77.9982 45.725 78.0731 45.725 78.148 45.725C78.2228 45.725 78.2977 45.725 78.3725 45.725C78.4473 45.725 78.5221 45.725 78.5969 45.725C78.6717 45.725 78.7464 45.725 78.8211 45.725C78.8958 45.725 78.9705 45.725 79.0451 45.725C79.1197 45.725 79.1943 45.725 79.2689 45.725C79.3435 45.725 79.418 45.725 79.4925 45.725C79.567 45.725 79.6415 45.725 79.7159 45.725C79.7904 45.725 79.8648 45.725 79.9391 45.725C80.0135 45.725 80.0878 45.725 80.1621 45.725C80.2364 45.725 80.3107 45.725 80.3849 45.725C80.4592 45.725 80.5334 45.725 80.6075 45.725C80.6817 45.725 80.7558 45.725 80.8299 45.725C80.904 45.725 80.978 45.725 81.052 45.725C81.126 45.725 81.2 45.725 81.2739 45.725C81.3479 45.725 81.4218 45.725 81.4957 45.725C81.5695 45.725 81.6433 45.725 81.7171 45.725C81.7909 45.725 81.8646 45.725 81.9384 45.725C82.0121 45.725 82.0857 45.725 82.1594 45.725C82.233 45.725 82.3066 45.725 82.3801 45.725C82.4537 45.725 82.5272 45.725 82.6006 45.725C82.6741 45.725 82.7475 45.725 82.8209 45.725C82.8943 45.725 82.9677 45.725 83.041 45.725C83.1143 45.725 83.1875 45.725 83.2607 45.725C83.3339 45.725 83.4071 45.725 83.4802 45.725C83.5534 45.725 83.6265 45.725 83.6995 45.725C83.7726 45.725 83.8456 45.725 83.9185 45.725C83.9915 45.725 84.0644 45.725 84.1373 45.725C84.2101 45.725 84.283 45.725 84.3557 45.725C84.4285 45.725 84.5012 45.725 84.5739 45.725C84.6466 45.725 84.7193 45.725 84.7919 45.725C84.8645 45.725 84.937 45.725 85.0095 45.725C85.082 45.725 85.1545 45.725 85.2269 45.725C85.2993 45.725 85.3716 45.725 85.444 45.725C85.5163 45.725 85.5885 45.725 85.6608 45.725C85.733 45.725 85.8051 45.725 85.8773 45.725C85.9494 45.725 86.0215 45.725 86.0935 45.725C86.1655 45.725 86.2375 45.725 86.3094 45.725C86.3813 45.725 86.4532 45.725 86.525 45.725C86.5968 45.725 86.6686 45.725 86.7403 45.725C86.812 45.725 86.8837 45.725 86.9553 45.725C87.0269 45.725 87.0985 45.725 87.17 45.725C87.2415 45.725 87.313 45.725 87.3844 45.725C87.4558 45.725 87.5272 45.725 87.5985 45.725C87.6698 45.725 87.741 45.725 87.8122 45.725C87.8834 45.725 87.9546 45.725 88.0257 45.725C88.0967 45.725 88.1678 45.725 88.2388 45.725C88.3097 45.725 88.3807 45.725 88.4515 45.725C88.5224 45.725 88.5932 45.725 88.664 45.725C88.7347 45.725 88.8054 45.725 88.8761 45.725C88.9467 45.725 89.0173 45.725 89.0878 45.725C89.1584 45.725 89.2288 45.725 89.2993 45.725C89.3697 45.725 89.44 45.725 89.5103 45.725C89.5806 45.725 89.6509 45.725 89.7211 45.725C89.7912 45.725 89.8614 45.725 89.9314 45.725C90.0015 45.725 90.0715 45.725 90.1415 45.725C90.2114 45.725 90.2813 45.725 90.3511 45.725C90.4209 45.725 90.4907 45.725 90.5604 45.725C90.6301 45.725 90.6998 45.725 90.7694 45.725C90.8389 45.725 90.9085 45.725 90.9779 45.725C91.0474 45.725 91.1168 45.725 91.1861 45.725C91.2555 45.725 91.3247 45.725 91.3939 45.725C91.4632 45.725 91.5323 45.725 91.6014 45.725C91.6705 45.725 91.7395 45.725 91.8084 45.725C91.8774 45.725 91.9463 45.725 92.0151 45.725C92.084 45.725 92.1527 45.725 92.2214 45.725C92.2901 45.725 92.3588 45.725 92.4273 45.725C92.4959 45.725 92.5644 45.725 92.6328 45.725C92.7013 45.725 92.7696 45.725 92.8379 45.725C92.9062 45.725 92.9745 45.725 93.0426 45.725C93.1108 45.725 93.1789 45.725 93.247 45.725C93.315 45.725 93.383 45.725 93.4509 45.725C93.5188 45.725 93.5866 45.725 93.6543 45.725C93.7221 45.725 93.7898 45.725 93.8574 45.725C93.925 45.725 93.9926 45.725 94.0601 45.725C94.1276 45.725 94.195 45.725 94.2623 45.725C94.3297 45.725 94.3969 45.725 94.4641 45.725C94.5313 45.725 94.5985 45.725 94.6655 45.725C94.7326 45.725 94.7996 45.725 94.8665 45.725C94.9334 45.725 95.0002 45.725 95.067 45.725C95.1338 45.725 95.2005 45.725 95.2671 45.725C95.3337 45.725 95.4003 45.725 95.4668 45.725C95.5332 45.725 95.5996 45.725 95.666 45.725C95.7323 45.725 95.7986 45.725 95.8647 45.725C95.9309 45.725 95.997 45.725 96.063 45.725C96.1291 45.725 96.195 45.725 96.2609 45.725C96.3268 45.725 96.3926 45.725 96.4583 45.725C96.524 45.725 96.5897 45.725 96.6553 45.725C96.7208 45.725 96.7863 45.725 96.8518 45.725C96.9172 45.725 96.9825 45.725 97.0478 45.725C97.113 45.725 97.1782 45.725 97.2433 45.725C97.3084 45.725 97.3735 45.725 97.4384 45.725C97.5034 45.725 97.5682 45.725 97.633 45.725C97.6978 45.725 97.7625 45.725 97.8272 45.725C97.8918 45.725 97.9563 45.725 98.0208 45.725C98.0853 45.725 98.1497 45.725 98.214 45.725C98.2783 45.725 98.3425 45.725 98.4066 45.725C98.4708 45.725 98.5348 45.725 98.5988 45.725C98.6628 45.725 98.7267 45.725 98.7905 45.725C98.8543 45.725 98.9181 45.725 98.9817 45.725C99.0454 45.725 99.1089 45.725 99.1724 45.725C99.2359 45.725 99.2993 45.725 99.3626 45.725C99.4259 45.725 99.4891 45.725 99.5523 45.725C99.6154 45.725 99.6785 45.725 99.7414 45.725C99.8044 45.725 99.8673 45.725 99.9301 45.725C99.9929 45.725 100.056 45.725 100.118 45.725C100.181 45.725 100.243 45.725 100.306 45.725C100.368 45.725 100.431 45.725 100.493 45.725C100.555 45.725 100.617 45.725 100.68 45.725C100.742 45.725 100.804 45.725 100.866 45.725C100.927 45.725 100.989 45.725 101.051 45.725C101.113 45.725 101.174 45.725 101.236 45.725C101.298 45.725 101.359 45.725 101.42 45.725C101.482 45.725 101.543 45.725 101.604 45.725C101.666 45.725 101.727 45.725 101.788 45.725C101.849 45.725 101.91 45.725 101.97 45.725C102.031 45.725 102.092 45.725 102.153 45.725C102.213 45.725 102.274 45.725 102.334 45.725C102.395 45.725 102.455 45.725 102.516 45.725C102.576 45.725 102.636 45.725 102.696 45.725C102.756 45.725 102.816 45.725 102.876 45.725C102.936 45.725 102.996 45.725 103.056 45.725C103.115 45.725 103.175 45.725 103.234 45.725C103.294 45.725 103.353 45.725 103.413 45.725C103.472 45.725 103.531 45.725 103.59 45.725C103.649 45.725 103.709 45.725 103.767 45.725C103.826 45.725 103.885 45.725 103.944 45.725C104.003 45.725 104.061 45.725 104.12 45.725C104.179 45.725 104.237 45.725 104.295 45.725C104.354 45.725 104.412 45.725 104.47 45.725C104.528 45.725 104.586 45.725 104.644 45.725C104.702 45.725 104.76 45.725 104.818 45.725C104.876 45.725 104.933 45.725 104.991 45.725C105.048 45.725 105.106 45.725 105.163 45.725C105.22 45.725 105.278 45.725 105.335 45.725C105.392 45.725 105.449 45.725 105.506 45.725C105.563 45.725 105.62 45.725 105.676 45.725C105.733 45.725 105.79 45.725 105.846 45.725C105.903 45.725 105.959 45.725 106.016 45.725C106.072 45.725 106.128 45.725 106.184 45.725C106.24 45.725 106.296 45.725 106.352 45.725C106.408 45.725 106.464 45.725 106.52 45.725C106.575 45.725 106.631 45.725 106.686 45.725C106.742 45.725 106.797 45.725 106.853 45.725C106.908 45.725 106.963 45.725 107.018 45.725C107.073 45.725 107.128 45.725 107.183 45.725C107.238 45.725 107.292 45.725 107.347 45.725C107.402 45.725 107.456 45.725 107.51 45.725C107.565 45.725 107.619 45.725 107.673 45.725C107.727 45.725 107.782 45.725 107.835 45.725C107.889 45.725 107.943 45.725 107.997 45.725C108.051 45.725 108.104 45.725 108.158 45.725C108.211 45.725 108.265 45.725 108.318 45.725C108.371 45.725 108.424 45.725 108.478 45.725C108.531 45.725 108.584 45.725 108.636 45.725C108.689 45.725 108.742 45.725 108.795 45.725C108.847 45.725 108.9 45.725 108.952 45.725C109.004 45.725 109.057 45.725 109.109 45.725C109.161 45.725 109.213 45.725 109.265 45.725C109.317 45.725 109.369 45.725 109.42 45.725C109.472 45.725 109.524 45.725 109.575 45.725C109.627 45.725 109.678 45.725 109.729 45.725C109.78 45.725 109.831 45.725 109.882 45.725C109.933 45.725 109.984 45.725 110.035 45.725C110.086 45.725 110.136 45.725 110.187 45.725C110.237 45.725 110.288 45.725 110.338 45.725C110.388 45.725 110.439 45.725 110.489 45.725C110.539 45.725 110.589 45.725 110.638 45.725C110.688 45.725 110.738 45.725 110.787 45.725C110.837 45.725 110.886 45.725 110.936 45.725C110.985 45.725 111.034 45.725 111.083 45.725C111.132 45.725 111.181 45.725 111.23 45.725C111.279 45.725 111.328 45.725 111.376 45.725C111.425 45.725 111.473 45.725 111.522 45.725C111.57 45.725 111.618 45.725 111.666 45.725C111.715 45.725 111.762 45.725 111.81 45.725C111.858 45.725 111.906 45.725 111.953 45.725C112.001 45.725 112.049 45.725 112.096 45.725C112.143 45.725 112.19 45.725 112.238 45.725C112.285 45.725 112.332 45.725 112.378 45.725C112.425 45.725 112.472 45.725 112.519 45.725C112.565 45.725 112.612 45.725 112.658 45.725C112.704 45.725 112.751 45.725 112.797 45.725C112.843 45.725 112.889 45.725 112.934 45.725C112.98 45.725 113.026 45.725 113.072 45.725C113.117 45.725 113.163 45.725 113.208 45.725C113.253 45.725 113.298 45.725 113.343 45.725C113.388 45.725 113.433 45.725 113.478 45.725C113.523 45.725 113.567 45.725 113.612 45.725C113.657 45.725 113.701 45.725 113.745 45.725C113.789 45.725 113.834 45.725 113.878 45.725C113.922 45.725 113.965 45.725 114.009 45.725C114.053 45.725 114.096 45.725 114.14 45.725C114.183 45.725 114.227 45.725 114.27 45.725C114.313 45.725 114.356 45.725 114.399 45.725C114.442 45.725 114.485 45.725 114.527 45.725C114.57 45.725 114.613 45.725 114.655 45.725C114.697 45.725 114.74 45.725 114.782 45.725C114.824 45.725 114.866 45.725 114.908 45.725C114.949 45.725 114.991 45.725 115.033 45.725C115.074 45.725 115.116 45.725 115.157 45.725C115.198 45.725 115.239 45.725 115.28 45.725C115.321 45.725 115.362 45.725 115.403 45.725C115.444 45.725 115.484 45.725 115.525 45.725C115.565 45.725 115.606 45.725 115.646 45.725C115.686 45.725 115.726 45.725 115.766 45.725C115.806 45.725 115.845 45.725 115.885 45.725C115.925 45.725 115.964 45.725 116.003 45.725C116.043 45.725 116.082 45.725 116.121 45.725C116.16 45.725 116.199 45.725 116.238 45.725C116.276 45.725 116.315 45.725 116.354 45.725C116.392 45.725 116.43 45.725 116.469 45.725C116.507 45.725 116.545 45.725 116.583 45.725C116.621 45.725 116.658 45.725 116.696 45.725C116.734 45.725 116.771 45.725 116.808 45.725C116.846 45.725 116.883 45.725 116.92 45.725C116.957 45.725 116.994 45.725 117.03 45.725C117.067 45.725 117.104 45.725 117.14 45.725C117.177 45.725 117.213 45.725 117.249 45.725C117.285 45.725 117.321 45.725 117.357 45.725C117.393 45.725 117.429 45.725 117.464 45.725C117.5 45.725 117.535 45.725 117.57 45.725C117.606 45.725 117.641 45.725 117.676 45.725C117.711 45.725 117.745 45.725 117.78 45.725C117.815 45.725 117.849 45.725 117.884 45.725C117.918 45.725 117.952 45.725 117.986 45.725C118.02 45.725 118.054 45.725 118.088 45.725C118.122 45.725 118.155 45.725 118.189 45.725C118.222 45.725 118.255 45.725 118.289 45.725C118.322 45.725 118.355 45.725 118.387 45.725C118.42 45.725 118.453 45.725 118.486 45.725C118.518 45.725 118.55 45.725 118.583 45.725C118.615 45.725 118.647 45.725 118.679 45.725C118.711 45.725 118.742 45.725 118.774 45.725C118.806 45.725 118.837 45.725 118.868 45.725C118.9 45.725 118.931 45.725 118.962 45.725C118.993 45.725 119.023 45.725 119.054 45.725C119.085 45.725 119.115 45.725 119.146 45.725C119.176 45.725 119.206 45.725 119.236 45.725C119.266 45.725 119.296 45.725 119.326 45.725C119.355 45.725 119.385 45.725 119.414 45.725C119.444 45.725 119.473 45.725 119.502 45.725C119.531 45.725 119.56 45.725 119.589 45.725C119.618 45.725 119.646 45.725 119.675 45.725C119.703 45.725 119.731 45.725 119.759 45.725C119.787 45.725 119.815 45.725 119.843 45.725C119.871 45.725 119.899 45.725 119.926 45.725C119.953 45.725 119.981 45.725 120.008 45.725C120.035 45.725 120.062 45.725 120.089 45.725C120.116 45.725 120.142 45.725 120.169 45.725C120.195 45.725 120.221 45.725 120.248 45.725C120.274 45.725 120.3 45.725 120.325 45.725C120.351 45.725 120.377 45.725 120.402 45.725C120.428 45.725 120.453 45.725 120.478 45.725C120.503 45.725 120.528 45.725 120.553 45.725C120.578 45.725 120.603 45.725 120.627 45.725C120.652 45.725 120.676 45.725 120.7 45.725C120.724 45.725 120.748 45.725 120.772 45.725C120.796 45.725 120.819 45.725 120.843 45.725C120.866 45.725 120.89 45.725 120.913 45.725C120.936 45.725 120.959 45.725 120.982 45.725C121.005 45.725 121.027 45.725 121.05 45.725C121.072 45.725 121.094 45.725 121.116 45.725C121.139 45.725 121.16 45.725 121.182 45.725C121.204 45.725 121.226 45.725 121.247 45.725C121.268 45.725 121.29 45.725 121.311 45.725C121.332 45.725 121.353 45.725 121.373 45.725C121.394 45.725 121.415 45.725 121.435 45.725C121.455 45.725 121.476 45.725 121.496 45.725C121.516 45.725 121.536 45.725 121.555 45.725C121.575 45.725 121.594 45.725 121.614 45.725C121.633 45.725 121.652 45.725 121.671 45.725C121.69 45.725 121.709 45.725 121.728 45.725C121.746 45.725 121.765 45.725 121.783 45.725C121.801 45.725 121.819 45.725 121.837 45.725C121.855 45.725 121.873 45.725 121.89 45.725C121.908 45.725 121.925 45.725 121.943 45.725C121.96 45.725 121.977 45.725 121.994 45.725C122.01 45.725 122.027 45.725 122.044 45.725C122.06 45.725 122.076 45.725 122.092 45.725C122.109 45.725 122.125 45.725 122.14 45.725C122.156 45.725 122.172 45.725 122.187 45.725C122.202 45.725 122.218 45.725 122.233 45.725C122.248 45.725 122.263 45.725 122.277 45.725C122.292 45.725 122.306 45.725 122.321 45.725C122.335 45.725 122.349 45.725 122.363 45.725C122.377 45.725 122.391 45.725 122.404 45.725C122.418 45.725 122.431 45.725 122.444 45.725C122.458 45.725 122.471 45.725 122.483 45.725C122.496 45.725 122.509 45.725 122.521 45.725C122.534 45.725 122.546 45.725 122.558 45.725C122.57 45.725 122.582 45.725 122.594 45.725C122.606 45.725 122.617 45.725 122.628 45.725C122.64 45.725 122.651 45.725 122.662 45.725C122.673 45.725 122.684 45.725 122.694 45.725C122.705 45.725 122.715 45.725 122.725 45.725C122.736 45.725 122.746 45.725 122.755 45.725C122.765 45.725 122.775 45.725 122.784 45.725C122.794 45.725 122.803 45.725 122.812 45.725C122.821 45.725 122.83 45.725 122.839 45.725C122.847 45.725 122.856 45.725 122.864 45.725C122.872 45.725 122.881 45.725 122.888 45.725C122.896 45.725 122.904 45.725 122.912 45.725C122.919 45.725 122.926 45.725 122.934 45.725C122.941 45.725 122.948 45.725 122.954 45.725C122.961 45.725 122.968 45.725 122.974 45.725C122.981 45.725 122.987 45.725 122.993 45.725C122.999 45.725 123.004 45.725 123.01 45.725C123.016 45.725 123.021 45.725 123.026 45.725C123.031 45.725 123.036 45.725 123.041 45.725C123.046 45.725 123.051 45.725 123.055 45.725C123.059 45.725 123.064 45.725 123.068 45.725C123.072 45.725 123.075 45.725 123.079 45.725C123.083 45.725 123.086 45.725 123.089 45.725C123.093 45.725 123.096 45.725 123.098 45.725C123.101 45.725 123.104 45.725 123.106 45.725C123.109 45.725 123.111 45.725 123.113 45.725C123.115 45.725 123.117 45.725 123.118 45.725C123.12 45.725 123.121 45.725 123.123 45.725C123.124 45.725 123.125 45.725 123.126 45.725C123.126 45.725 123.127 45.725 123.127 45.725C123.128 45.725 123.128 45.725 123.128 35.725Z" fill="#C7C7C7" mask="url(#path-3-outside-1_411_21)"/>
</svg>
