<svg width="49" height="42" viewBox="0 0 49 42" fill="none" xmlns="http://www.w3.org/2000/svg">
<path d="M26.1862 0.770833C25.9654 0.575566 25.7028 0.420578 25.4133 0.31481C25.1239 0.209041 24.8135 0.154587 24.5 0.154587C24.1864 0.154587 23.876 0.209041 23.5866 0.31481C23.2972 0.420578 23.0345 0.575566 22.8137 0.770833L1.43873 19.5208C1.21612 19.7145 1.03944 19.9449 0.91886 20.1988C0.798284 20.4527 0.736206 20.725 0.736206 21C0.736206 21.275 0.798284 21.5473 0.91886 21.8012C1.03944 22.0551 1.21612 22.2855 1.43873 22.4792C1.66065 22.6723 1.92383 22.825 2.2132 22.9287C2.50256 23.0324 2.81241 23.0849 3.12498 23.0833H5.49998V37.6667C5.49998 38.7717 6.00042 39.8315 6.89122 40.6129C7.78202 41.3943 8.9902 41.8333 10.25 41.8333H38.75C40.0098 41.8333 41.2179 41.3943 42.1087 40.6129C42.9995 39.8315 43.5 38.7717 43.5 37.6667V23.0833H45.875C46.5049 23.0833 47.109 22.8638 47.5544 22.4731C47.9998 22.0824 48.25 21.5525 48.25 21C48.2518 20.7258 48.1919 20.454 48.0737 20.2002C47.9555 19.9464 47.7813 19.7155 47.5612 19.5208L26.1862 0.770833ZM10.25 37.6667V17.6875L24.5 5.1875L38.75 17.6875V37.6667H10.25Z" fill="black"/>
</svg>
